G75*
%MOIN*%
%OFA0B0*%
%FSLAX24Y24*%
%IPPOS*%
%LPD*%
%AMOC8*
5,1,8,0,0,1.08239X$1,22.5*
%
%ADD10C,0.0000*%
%ADD11C,0.0060*%
%ADD12R,0.0200X0.0150*%
%ADD13C,0.0120*%
%ADD14C,0.0080*%
%ADD15C,0.0050*%
%ADD16C,0.0020*%
%ADD17C,0.0100*%
%ADD18C,0.0040*%
%ADD19C,0.0030*%
%ADD20C,0.0008*%
%ADD21R,0.0150X0.0200*%
D10*
X001445Y001401D02*
X031517Y001402D01*
X031522Y024643D01*
X001457Y024645D01*
X001445Y001401D01*
X001796Y002375D02*
X001798Y002425D01*
X001804Y002475D01*
X001814Y002524D01*
X001828Y002572D01*
X001845Y002619D01*
X001866Y002664D01*
X001891Y002708D01*
X001919Y002749D01*
X001951Y002788D01*
X001985Y002825D01*
X002022Y002859D01*
X002062Y002889D01*
X002104Y002916D01*
X002148Y002940D01*
X002194Y002961D01*
X002241Y002977D01*
X002289Y002990D01*
X002339Y002999D01*
X002388Y003004D01*
X002439Y003005D01*
X002489Y003002D01*
X002538Y002995D01*
X002587Y002984D01*
X002635Y002969D01*
X002681Y002951D01*
X002726Y002929D01*
X002769Y002903D01*
X002810Y002874D01*
X002849Y002842D01*
X002885Y002807D01*
X002917Y002769D01*
X002947Y002729D01*
X002974Y002686D01*
X002997Y002642D01*
X003016Y002596D01*
X003032Y002548D01*
X003044Y002499D01*
X003052Y002450D01*
X003056Y002400D01*
X003056Y002350D01*
X003052Y002300D01*
X003044Y002251D01*
X003032Y002202D01*
X003016Y002154D01*
X002997Y002108D01*
X002974Y002064D01*
X002947Y002021D01*
X002917Y001981D01*
X002885Y001943D01*
X002849Y001908D01*
X002810Y001876D01*
X002769Y001847D01*
X002726Y001821D01*
X002681Y001799D01*
X002635Y001781D01*
X002587Y001766D01*
X002538Y001755D01*
X002489Y001748D01*
X002439Y001745D01*
X002388Y001746D01*
X002339Y001751D01*
X002289Y001760D01*
X002241Y001773D01*
X002194Y001789D01*
X002148Y001810D01*
X002104Y001834D01*
X002062Y001861D01*
X002022Y001891D01*
X001985Y001925D01*
X001951Y001962D01*
X001919Y002001D01*
X001891Y002042D01*
X001866Y002086D01*
X001845Y002131D01*
X001828Y002178D01*
X001814Y002226D01*
X001804Y002275D01*
X001798Y002325D01*
X001796Y002375D01*
X001813Y023694D02*
X001815Y023744D01*
X001821Y023794D01*
X001831Y023843D01*
X001845Y023891D01*
X001862Y023938D01*
X001883Y023983D01*
X001908Y024027D01*
X001936Y024068D01*
X001968Y024107D01*
X002002Y024144D01*
X002039Y024178D01*
X002079Y024208D01*
X002121Y024235D01*
X002165Y024259D01*
X002211Y024280D01*
X002258Y024296D01*
X002306Y024309D01*
X002356Y024318D01*
X002405Y024323D01*
X002456Y024324D01*
X002506Y024321D01*
X002555Y024314D01*
X002604Y024303D01*
X002652Y024288D01*
X002698Y024270D01*
X002743Y024248D01*
X002786Y024222D01*
X002827Y024193D01*
X002866Y024161D01*
X002902Y024126D01*
X002934Y024088D01*
X002964Y024048D01*
X002991Y024005D01*
X003014Y023961D01*
X003033Y023915D01*
X003049Y023867D01*
X003061Y023818D01*
X003069Y023769D01*
X003073Y023719D01*
X003073Y023669D01*
X003069Y023619D01*
X003061Y023570D01*
X003049Y023521D01*
X003033Y023473D01*
X003014Y023427D01*
X002991Y023383D01*
X002964Y023340D01*
X002934Y023300D01*
X002902Y023262D01*
X002866Y023227D01*
X002827Y023195D01*
X002786Y023166D01*
X002743Y023140D01*
X002698Y023118D01*
X002652Y023100D01*
X002604Y023085D01*
X002555Y023074D01*
X002506Y023067D01*
X002456Y023064D01*
X002405Y023065D01*
X002356Y023070D01*
X002306Y023079D01*
X002258Y023092D01*
X002211Y023108D01*
X002165Y023129D01*
X002121Y023153D01*
X002079Y023180D01*
X002039Y023210D01*
X002002Y023244D01*
X001968Y023281D01*
X001936Y023320D01*
X001908Y023361D01*
X001883Y023405D01*
X001862Y023450D01*
X001845Y023497D01*
X001831Y023545D01*
X001821Y023594D01*
X001815Y023644D01*
X001813Y023694D01*
X029905Y023690D02*
X029907Y023740D01*
X029913Y023790D01*
X029923Y023839D01*
X029937Y023887D01*
X029954Y023934D01*
X029975Y023979D01*
X030000Y024023D01*
X030028Y024064D01*
X030060Y024103D01*
X030094Y024140D01*
X030131Y024174D01*
X030171Y024204D01*
X030213Y024231D01*
X030257Y024255D01*
X030303Y024276D01*
X030350Y024292D01*
X030398Y024305D01*
X030448Y024314D01*
X030497Y024319D01*
X030548Y024320D01*
X030598Y024317D01*
X030647Y024310D01*
X030696Y024299D01*
X030744Y024284D01*
X030790Y024266D01*
X030835Y024244D01*
X030878Y024218D01*
X030919Y024189D01*
X030958Y024157D01*
X030994Y024122D01*
X031026Y024084D01*
X031056Y024044D01*
X031083Y024001D01*
X031106Y023957D01*
X031125Y023911D01*
X031141Y023863D01*
X031153Y023814D01*
X031161Y023765D01*
X031165Y023715D01*
X031165Y023665D01*
X031161Y023615D01*
X031153Y023566D01*
X031141Y023517D01*
X031125Y023469D01*
X031106Y023423D01*
X031083Y023379D01*
X031056Y023336D01*
X031026Y023296D01*
X030994Y023258D01*
X030958Y023223D01*
X030919Y023191D01*
X030878Y023162D01*
X030835Y023136D01*
X030790Y023114D01*
X030744Y023096D01*
X030696Y023081D01*
X030647Y023070D01*
X030598Y023063D01*
X030548Y023060D01*
X030497Y023061D01*
X030448Y023066D01*
X030398Y023075D01*
X030350Y023088D01*
X030303Y023104D01*
X030257Y023125D01*
X030213Y023149D01*
X030171Y023176D01*
X030131Y023206D01*
X030094Y023240D01*
X030060Y023277D01*
X030028Y023316D01*
X030000Y023357D01*
X029975Y023401D01*
X029954Y023446D01*
X029937Y023493D01*
X029923Y023541D01*
X029913Y023590D01*
X029907Y023640D01*
X029905Y023690D01*
X029902Y002389D02*
X029904Y002439D01*
X029910Y002489D01*
X029920Y002538D01*
X029934Y002586D01*
X029951Y002633D01*
X029972Y002678D01*
X029997Y002722D01*
X030025Y002763D01*
X030057Y002802D01*
X030091Y002839D01*
X030128Y002873D01*
X030168Y002903D01*
X030210Y002930D01*
X030254Y002954D01*
X030300Y002975D01*
X030347Y002991D01*
X030395Y003004D01*
X030445Y003013D01*
X030494Y003018D01*
X030545Y003019D01*
X030595Y003016D01*
X030644Y003009D01*
X030693Y002998D01*
X030741Y002983D01*
X030787Y002965D01*
X030832Y002943D01*
X030875Y002917D01*
X030916Y002888D01*
X030955Y002856D01*
X030991Y002821D01*
X031023Y002783D01*
X031053Y002743D01*
X031080Y002700D01*
X031103Y002656D01*
X031122Y002610D01*
X031138Y002562D01*
X031150Y002513D01*
X031158Y002464D01*
X031162Y002414D01*
X031162Y002364D01*
X031158Y002314D01*
X031150Y002265D01*
X031138Y002216D01*
X031122Y002168D01*
X031103Y002122D01*
X031080Y002078D01*
X031053Y002035D01*
X031023Y001995D01*
X030991Y001957D01*
X030955Y001922D01*
X030916Y001890D01*
X030875Y001861D01*
X030832Y001835D01*
X030787Y001813D01*
X030741Y001795D01*
X030693Y001780D01*
X030644Y001769D01*
X030595Y001762D01*
X030545Y001759D01*
X030494Y001760D01*
X030445Y001765D01*
X030395Y001774D01*
X030347Y001787D01*
X030300Y001803D01*
X030254Y001824D01*
X030210Y001848D01*
X030168Y001875D01*
X030128Y001905D01*
X030091Y001939D01*
X030057Y001976D01*
X030025Y002015D01*
X029997Y002056D01*
X029972Y002100D01*
X029951Y002145D01*
X029934Y002192D01*
X029920Y002240D01*
X029910Y002289D01*
X029904Y002339D01*
X029902Y002389D01*
D11*
X029395Y002670D02*
X029395Y001870D01*
X029393Y001853D01*
X029389Y001836D01*
X029382Y001820D01*
X029372Y001806D01*
X029359Y001793D01*
X029345Y001783D01*
X029329Y001776D01*
X029312Y001772D01*
X029295Y001770D01*
X027595Y001770D01*
X027578Y001772D01*
X027561Y001776D01*
X027545Y001783D01*
X027531Y001793D01*
X027518Y001806D01*
X027508Y001820D01*
X027501Y001836D01*
X027497Y001853D01*
X027495Y001870D01*
X027495Y002670D01*
X027497Y002687D01*
X027501Y002704D01*
X027508Y002720D01*
X027518Y002734D01*
X027531Y002747D01*
X027545Y002757D01*
X027561Y002764D01*
X027578Y002768D01*
X027595Y002770D01*
X029295Y002770D01*
X029312Y002768D01*
X029329Y002764D01*
X029345Y002757D01*
X029359Y002747D01*
X029372Y002734D01*
X029382Y002720D01*
X029389Y002704D01*
X029393Y002687D01*
X029395Y002670D01*
X028595Y002270D02*
X028545Y002270D01*
X028345Y002270D02*
X028295Y002270D01*
X027184Y001870D02*
X027184Y002670D01*
X027182Y002687D01*
X027178Y002704D01*
X027171Y002720D01*
X027161Y002734D01*
X027148Y002747D01*
X027134Y002757D01*
X027118Y002764D01*
X027101Y002768D01*
X027084Y002770D01*
X025384Y002770D01*
X025367Y002768D01*
X025350Y002764D01*
X025334Y002757D01*
X025320Y002747D01*
X025307Y002734D01*
X025297Y002720D01*
X025290Y002704D01*
X025286Y002687D01*
X025284Y002670D01*
X025284Y001870D01*
X025286Y001853D01*
X025290Y001836D01*
X025297Y001820D01*
X025307Y001806D01*
X025320Y001793D01*
X025334Y001783D01*
X025350Y001776D01*
X025367Y001772D01*
X025384Y001770D01*
X027084Y001770D01*
X027101Y001772D01*
X027118Y001776D01*
X027134Y001783D01*
X027148Y001793D01*
X027161Y001806D01*
X027171Y001820D01*
X027178Y001836D01*
X027182Y001853D01*
X027184Y001870D01*
X026384Y002270D02*
X026334Y002270D01*
X026134Y002270D02*
X026084Y002270D01*
X024975Y002655D02*
X024975Y001855D01*
X024973Y001838D01*
X024969Y001821D01*
X024962Y001805D01*
X024952Y001791D01*
X024939Y001778D01*
X024925Y001768D01*
X024909Y001761D01*
X024892Y001757D01*
X024875Y001755D01*
X023175Y001755D01*
X023158Y001757D01*
X023141Y001761D01*
X023125Y001768D01*
X023111Y001778D01*
X023098Y001791D01*
X023088Y001805D01*
X023081Y001821D01*
X023077Y001838D01*
X023075Y001855D01*
X023075Y002655D01*
X023077Y002672D01*
X023081Y002689D01*
X023088Y002705D01*
X023098Y002719D01*
X023111Y002732D01*
X023125Y002742D01*
X023141Y002749D01*
X023158Y002753D01*
X023175Y002755D01*
X024875Y002755D01*
X024892Y002753D01*
X024909Y002749D01*
X024925Y002742D01*
X024939Y002732D01*
X024952Y002719D01*
X024962Y002705D01*
X024969Y002689D01*
X024973Y002672D01*
X024975Y002655D01*
X024175Y002255D02*
X024125Y002255D01*
X023925Y002255D02*
X023875Y002255D01*
X022858Y001886D02*
X022858Y002686D01*
X022856Y002703D01*
X022852Y002720D01*
X022845Y002736D01*
X022835Y002750D01*
X022822Y002763D01*
X022808Y002773D01*
X022792Y002780D01*
X022775Y002784D01*
X022758Y002786D01*
X021058Y002786D01*
X021041Y002784D01*
X021024Y002780D01*
X021008Y002773D01*
X020994Y002763D01*
X020981Y002750D01*
X020971Y002736D01*
X020964Y002720D01*
X020960Y002703D01*
X020958Y002686D01*
X020958Y001886D01*
X020960Y001869D01*
X020964Y001852D01*
X020971Y001836D01*
X020981Y001822D01*
X020994Y001809D01*
X021008Y001799D01*
X021024Y001792D01*
X021041Y001788D01*
X021058Y001786D01*
X022758Y001786D01*
X022775Y001788D01*
X022792Y001792D01*
X022808Y001799D01*
X022822Y001809D01*
X022835Y001822D01*
X022845Y001836D01*
X022852Y001852D01*
X022856Y001869D01*
X022858Y001886D01*
X022058Y002286D02*
X022008Y002286D01*
X021808Y002286D02*
X021758Y002286D01*
X020688Y002670D02*
X020688Y001870D01*
X020686Y001853D01*
X020682Y001836D01*
X020675Y001820D01*
X020665Y001806D01*
X020652Y001793D01*
X020638Y001783D01*
X020622Y001776D01*
X020605Y001772D01*
X020588Y001770D01*
X018888Y001770D01*
X018871Y001772D01*
X018854Y001776D01*
X018838Y001783D01*
X018824Y001793D01*
X018811Y001806D01*
X018801Y001820D01*
X018794Y001836D01*
X018790Y001853D01*
X018788Y001870D01*
X018788Y002670D01*
X018790Y002687D01*
X018794Y002704D01*
X018801Y002720D01*
X018811Y002734D01*
X018824Y002747D01*
X018838Y002757D01*
X018854Y002764D01*
X018871Y002768D01*
X018888Y002770D01*
X020588Y002770D01*
X020605Y002768D01*
X020622Y002764D01*
X020638Y002757D01*
X020652Y002747D01*
X020665Y002734D01*
X020675Y002720D01*
X020682Y002704D01*
X020686Y002687D01*
X020688Y002670D01*
X019888Y002270D02*
X019838Y002270D01*
X019638Y002270D02*
X019588Y002270D01*
X018853Y005357D02*
X018855Y005413D01*
X018861Y005470D01*
X018871Y005525D01*
X018885Y005580D01*
X018902Y005634D01*
X018924Y005686D01*
X018949Y005736D01*
X018977Y005785D01*
X019009Y005832D01*
X019044Y005876D01*
X019082Y005918D01*
X019123Y005957D01*
X019167Y005992D01*
X019213Y006025D01*
X019261Y006054D01*
X019311Y006080D01*
X019363Y006103D01*
X019417Y006121D01*
X019471Y006136D01*
X019526Y006147D01*
X019582Y006154D01*
X019639Y006157D01*
X019695Y006156D01*
X019752Y006151D01*
X019807Y006142D01*
X019862Y006129D01*
X019916Y006112D01*
X019969Y006092D01*
X020020Y006068D01*
X020069Y006040D01*
X020116Y006009D01*
X020161Y005975D01*
X020204Y005937D01*
X020243Y005897D01*
X020280Y005854D01*
X020313Y005809D01*
X020343Y005761D01*
X020370Y005711D01*
X020393Y005660D01*
X020413Y005607D01*
X020429Y005553D01*
X020441Y005497D01*
X020449Y005442D01*
X020453Y005385D01*
X020453Y005329D01*
X020449Y005272D01*
X020441Y005217D01*
X020429Y005161D01*
X020413Y005107D01*
X020393Y005054D01*
X020370Y005003D01*
X020343Y004953D01*
X020313Y004905D01*
X020280Y004860D01*
X020243Y004817D01*
X020204Y004777D01*
X020161Y004739D01*
X020116Y004705D01*
X020069Y004674D01*
X020020Y004646D01*
X019969Y004622D01*
X019916Y004602D01*
X019862Y004585D01*
X019807Y004572D01*
X019752Y004563D01*
X019695Y004558D01*
X019639Y004557D01*
X019582Y004560D01*
X019526Y004567D01*
X019471Y004578D01*
X019417Y004593D01*
X019363Y004611D01*
X019311Y004634D01*
X019261Y004660D01*
X019213Y004689D01*
X019167Y004722D01*
X019123Y004757D01*
X019082Y004796D01*
X019044Y004838D01*
X019009Y004882D01*
X018977Y004929D01*
X018949Y004978D01*
X018924Y005028D01*
X018902Y005080D01*
X018885Y005134D01*
X018871Y005189D01*
X018861Y005244D01*
X018855Y005301D01*
X018853Y005357D01*
X019353Y005807D02*
X019353Y006007D01*
X019253Y005907D02*
X019453Y005907D01*
X016986Y005313D02*
X016988Y005369D01*
X016994Y005426D01*
X017004Y005481D01*
X017018Y005536D01*
X017035Y005590D01*
X017057Y005642D01*
X017082Y005692D01*
X017110Y005741D01*
X017142Y005788D01*
X017177Y005832D01*
X017215Y005874D01*
X017256Y005913D01*
X017300Y005948D01*
X017346Y005981D01*
X017394Y006010D01*
X017444Y006036D01*
X017496Y006059D01*
X017550Y006077D01*
X017604Y006092D01*
X017659Y006103D01*
X017715Y006110D01*
X017772Y006113D01*
X017828Y006112D01*
X017885Y006107D01*
X017940Y006098D01*
X017995Y006085D01*
X018049Y006068D01*
X018102Y006048D01*
X018153Y006024D01*
X018202Y005996D01*
X018249Y005965D01*
X018294Y005931D01*
X018337Y005893D01*
X018376Y005853D01*
X018413Y005810D01*
X018446Y005765D01*
X018476Y005717D01*
X018503Y005667D01*
X018526Y005616D01*
X018546Y005563D01*
X018562Y005509D01*
X018574Y005453D01*
X018582Y005398D01*
X018586Y005341D01*
X018586Y005285D01*
X018582Y005228D01*
X018574Y005173D01*
X018562Y005117D01*
X018546Y005063D01*
X018526Y005010D01*
X018503Y004959D01*
X018476Y004909D01*
X018446Y004861D01*
X018413Y004816D01*
X018376Y004773D01*
X018337Y004733D01*
X018294Y004695D01*
X018249Y004661D01*
X018202Y004630D01*
X018153Y004602D01*
X018102Y004578D01*
X018049Y004558D01*
X017995Y004541D01*
X017940Y004528D01*
X017885Y004519D01*
X017828Y004514D01*
X017772Y004513D01*
X017715Y004516D01*
X017659Y004523D01*
X017604Y004534D01*
X017550Y004549D01*
X017496Y004567D01*
X017444Y004590D01*
X017394Y004616D01*
X017346Y004645D01*
X017300Y004678D01*
X017256Y004713D01*
X017215Y004752D01*
X017177Y004794D01*
X017142Y004838D01*
X017110Y004885D01*
X017082Y004934D01*
X017057Y004984D01*
X017035Y005036D01*
X017018Y005090D01*
X017004Y005145D01*
X016994Y005200D01*
X016988Y005257D01*
X016986Y005313D01*
X017486Y005763D02*
X017486Y005963D01*
X017386Y005863D02*
X017586Y005863D01*
X015139Y005266D02*
X015141Y005322D01*
X015147Y005379D01*
X015157Y005434D01*
X015171Y005489D01*
X015188Y005543D01*
X015210Y005595D01*
X015235Y005645D01*
X015263Y005694D01*
X015295Y005741D01*
X015330Y005785D01*
X015368Y005827D01*
X015409Y005866D01*
X015453Y005901D01*
X015499Y005934D01*
X015547Y005963D01*
X015597Y005989D01*
X015649Y006012D01*
X015703Y006030D01*
X015757Y006045D01*
X015812Y006056D01*
X015868Y006063D01*
X015925Y006066D01*
X015981Y006065D01*
X016038Y006060D01*
X016093Y006051D01*
X016148Y006038D01*
X016202Y006021D01*
X016255Y006001D01*
X016306Y005977D01*
X016355Y005949D01*
X016402Y005918D01*
X016447Y005884D01*
X016490Y005846D01*
X016529Y005806D01*
X016566Y005763D01*
X016599Y005718D01*
X016629Y005670D01*
X016656Y005620D01*
X016679Y005569D01*
X016699Y005516D01*
X016715Y005462D01*
X016727Y005406D01*
X016735Y005351D01*
X016739Y005294D01*
X016739Y005238D01*
X016735Y005181D01*
X016727Y005126D01*
X016715Y005070D01*
X016699Y005016D01*
X016679Y004963D01*
X016656Y004912D01*
X016629Y004862D01*
X016599Y004814D01*
X016566Y004769D01*
X016529Y004726D01*
X016490Y004686D01*
X016447Y004648D01*
X016402Y004614D01*
X016355Y004583D01*
X016306Y004555D01*
X016255Y004531D01*
X016202Y004511D01*
X016148Y004494D01*
X016093Y004481D01*
X016038Y004472D01*
X015981Y004467D01*
X015925Y004466D01*
X015868Y004469D01*
X015812Y004476D01*
X015757Y004487D01*
X015703Y004502D01*
X015649Y004520D01*
X015597Y004543D01*
X015547Y004569D01*
X015499Y004598D01*
X015453Y004631D01*
X015409Y004666D01*
X015368Y004705D01*
X015330Y004747D01*
X015295Y004791D01*
X015263Y004838D01*
X015235Y004887D01*
X015210Y004937D01*
X015188Y004989D01*
X015171Y005043D01*
X015157Y005098D01*
X015147Y005153D01*
X015141Y005210D01*
X015139Y005266D01*
X015639Y005716D02*
X015639Y005916D01*
X015539Y005816D02*
X015739Y005816D01*
X013301Y005301D02*
X013303Y005357D01*
X013309Y005414D01*
X013319Y005469D01*
X013333Y005524D01*
X013350Y005578D01*
X013372Y005630D01*
X013397Y005680D01*
X013425Y005729D01*
X013457Y005776D01*
X013492Y005820D01*
X013530Y005862D01*
X013571Y005901D01*
X013615Y005936D01*
X013661Y005969D01*
X013709Y005998D01*
X013759Y006024D01*
X013811Y006047D01*
X013865Y006065D01*
X013919Y006080D01*
X013974Y006091D01*
X014030Y006098D01*
X014087Y006101D01*
X014143Y006100D01*
X014200Y006095D01*
X014255Y006086D01*
X014310Y006073D01*
X014364Y006056D01*
X014417Y006036D01*
X014468Y006012D01*
X014517Y005984D01*
X014564Y005953D01*
X014609Y005919D01*
X014652Y005881D01*
X014691Y005841D01*
X014728Y005798D01*
X014761Y005753D01*
X014791Y005705D01*
X014818Y005655D01*
X014841Y005604D01*
X014861Y005551D01*
X014877Y005497D01*
X014889Y005441D01*
X014897Y005386D01*
X014901Y005329D01*
X014901Y005273D01*
X014897Y005216D01*
X014889Y005161D01*
X014877Y005105D01*
X014861Y005051D01*
X014841Y004998D01*
X014818Y004947D01*
X014791Y004897D01*
X014761Y004849D01*
X014728Y004804D01*
X014691Y004761D01*
X014652Y004721D01*
X014609Y004683D01*
X014564Y004649D01*
X014517Y004618D01*
X014468Y004590D01*
X014417Y004566D01*
X014364Y004546D01*
X014310Y004529D01*
X014255Y004516D01*
X014200Y004507D01*
X014143Y004502D01*
X014087Y004501D01*
X014030Y004504D01*
X013974Y004511D01*
X013919Y004522D01*
X013865Y004537D01*
X013811Y004555D01*
X013759Y004578D01*
X013709Y004604D01*
X013661Y004633D01*
X013615Y004666D01*
X013571Y004701D01*
X013530Y004740D01*
X013492Y004782D01*
X013457Y004826D01*
X013425Y004873D01*
X013397Y004922D01*
X013372Y004972D01*
X013350Y005024D01*
X013333Y005078D01*
X013319Y005133D01*
X013309Y005188D01*
X013303Y005245D01*
X013301Y005301D01*
X013801Y005751D02*
X013801Y005951D01*
X013701Y005851D02*
X013901Y005851D01*
X016015Y009015D02*
X016265Y009015D01*
X017015Y009015D01*
X017015Y009265D01*
X017265Y009015D01*
X017765Y009015D01*
X018015Y009265D01*
X018265Y009015D01*
X018765Y009015D01*
X019015Y009265D01*
X019265Y009015D01*
X019765Y009015D01*
X020015Y009265D01*
X020265Y009015D01*
X020765Y009015D01*
X021015Y009265D01*
X021265Y009015D01*
X021765Y009015D01*
X022015Y009265D01*
X022015Y009765D01*
X021765Y010015D01*
X021265Y010015D01*
X021015Y009765D01*
X020765Y010015D01*
X020265Y010015D01*
X020015Y009765D01*
X019765Y010015D01*
X019265Y010015D01*
X019015Y009765D01*
X018765Y010015D01*
X018265Y010015D01*
X018015Y009765D01*
X017765Y010015D01*
X017265Y010015D01*
X017015Y009765D01*
X017015Y010015D01*
X016265Y010015D01*
X016015Y010015D01*
X016015Y009015D01*
X015613Y012350D02*
X017313Y012350D01*
X017330Y012352D01*
X017347Y012356D01*
X017363Y012363D01*
X017377Y012373D01*
X017390Y012386D01*
X017400Y012400D01*
X017407Y012416D01*
X017411Y012433D01*
X017413Y012450D01*
X017413Y013250D01*
X017411Y013267D01*
X017407Y013284D01*
X017400Y013300D01*
X017390Y013314D01*
X017377Y013327D01*
X017363Y013337D01*
X017347Y013344D01*
X017330Y013348D01*
X017313Y013350D01*
X015613Y013350D01*
X015596Y013348D01*
X015579Y013344D01*
X015563Y013337D01*
X015549Y013327D01*
X015536Y013314D01*
X015526Y013300D01*
X015519Y013284D01*
X015515Y013267D01*
X015513Y013250D01*
X015513Y012450D01*
X015515Y012433D01*
X015519Y012416D01*
X015526Y012400D01*
X015536Y012386D01*
X015549Y012373D01*
X015563Y012363D01*
X015579Y012356D01*
X015596Y012352D01*
X015613Y012350D01*
X015116Y012449D02*
X015116Y013249D01*
X015114Y013266D01*
X015110Y013283D01*
X015103Y013299D01*
X015093Y013313D01*
X015080Y013326D01*
X015066Y013336D01*
X015050Y013343D01*
X015033Y013347D01*
X015016Y013349D01*
X013316Y013349D01*
X013299Y013347D01*
X013282Y013343D01*
X013266Y013336D01*
X013252Y013326D01*
X013239Y013313D01*
X013229Y013299D01*
X013222Y013283D01*
X013218Y013266D01*
X013216Y013249D01*
X013216Y012449D01*
X013218Y012432D01*
X013222Y012415D01*
X013229Y012399D01*
X013239Y012385D01*
X013252Y012372D01*
X013266Y012362D01*
X013282Y012355D01*
X013299Y012351D01*
X013316Y012349D01*
X015016Y012349D01*
X015033Y012351D01*
X015050Y012355D01*
X015066Y012362D01*
X015080Y012372D01*
X015093Y012385D01*
X015103Y012399D01*
X015110Y012415D01*
X015114Y012432D01*
X015116Y012449D01*
X014316Y012849D02*
X014266Y012849D01*
X014066Y012849D02*
X014016Y012849D01*
X014004Y013590D02*
X016704Y013590D01*
X016613Y012850D02*
X016563Y012850D01*
X016363Y012850D02*
X016313Y012850D01*
X016704Y013590D02*
X016763Y013592D01*
X016821Y013598D01*
X016880Y013607D01*
X016937Y013621D01*
X016993Y013638D01*
X017048Y013659D01*
X017102Y013683D01*
X017154Y013711D01*
X017204Y013742D01*
X017252Y013776D01*
X017297Y013813D01*
X017340Y013854D01*
X017381Y013897D01*
X017418Y013942D01*
X017452Y013990D01*
X017483Y014040D01*
X017511Y014092D01*
X017535Y014146D01*
X017556Y014201D01*
X017573Y014257D01*
X017587Y014314D01*
X017596Y014373D01*
X017602Y014431D01*
X017604Y014490D01*
X017602Y014549D01*
X017596Y014607D01*
X017587Y014666D01*
X017573Y014723D01*
X017556Y014779D01*
X017535Y014834D01*
X017511Y014888D01*
X017483Y014940D01*
X017452Y014990D01*
X017418Y015038D01*
X017381Y015083D01*
X017340Y015126D01*
X017297Y015167D01*
X017252Y015204D01*
X017204Y015238D01*
X017154Y015269D01*
X017102Y015297D01*
X017048Y015321D01*
X016993Y015342D01*
X016937Y015359D01*
X016880Y015373D01*
X016821Y015382D01*
X016763Y015388D01*
X016704Y015390D01*
X014004Y015390D01*
X013945Y015388D01*
X013887Y015382D01*
X013828Y015373D01*
X013771Y015359D01*
X013715Y015342D01*
X013660Y015321D01*
X013606Y015297D01*
X013554Y015269D01*
X013504Y015238D01*
X013456Y015204D01*
X013411Y015167D01*
X013368Y015126D01*
X013327Y015083D01*
X013290Y015038D01*
X013256Y014990D01*
X013225Y014940D01*
X013197Y014888D01*
X013173Y014834D01*
X013152Y014779D01*
X013135Y014723D01*
X013121Y014666D01*
X013112Y014607D01*
X013106Y014549D01*
X013104Y014490D01*
X013106Y014431D01*
X013112Y014373D01*
X013121Y014314D01*
X013135Y014257D01*
X013152Y014201D01*
X013173Y014146D01*
X013197Y014092D01*
X013225Y014040D01*
X013256Y013990D01*
X013290Y013942D01*
X013327Y013897D01*
X013368Y013854D01*
X013411Y013813D01*
X013456Y013776D01*
X013504Y013742D01*
X013554Y013711D01*
X013606Y013683D01*
X013660Y013659D01*
X013715Y013638D01*
X013771Y013621D01*
X013828Y013607D01*
X013887Y013598D01*
X013945Y013592D01*
X014004Y013590D01*
X008324Y016474D02*
X022924Y016474D01*
X022924Y018674D01*
X008324Y018674D01*
X008324Y017824D01*
X008354Y017822D01*
X008384Y017817D01*
X008413Y017808D01*
X008440Y017795D01*
X008466Y017780D01*
X008490Y017761D01*
X008511Y017740D01*
X008530Y017716D01*
X008545Y017690D01*
X008558Y017663D01*
X008567Y017634D01*
X008572Y017604D01*
X008574Y017574D01*
X008572Y017544D01*
X008567Y017514D01*
X008558Y017485D01*
X008545Y017458D01*
X008530Y017432D01*
X008511Y017408D01*
X008490Y017387D01*
X008466Y017368D01*
X008440Y017353D01*
X008413Y017340D01*
X008384Y017331D01*
X008354Y017326D01*
X008324Y017324D01*
X008324Y016474D01*
X007844Y016829D02*
X007844Y016979D01*
X007794Y017029D01*
X007794Y018429D01*
X007844Y018479D01*
X007844Y018629D01*
X007842Y018646D01*
X007838Y018663D01*
X007831Y018679D01*
X007821Y018693D01*
X007808Y018706D01*
X007794Y018716D01*
X007778Y018723D01*
X007761Y018727D01*
X007744Y018729D01*
X007144Y018729D01*
X007127Y018727D01*
X007110Y018723D01*
X007094Y018716D01*
X007080Y018706D01*
X007067Y018693D01*
X007057Y018679D01*
X007050Y018663D01*
X007046Y018646D01*
X007044Y018629D01*
X007044Y018479D01*
X007094Y018429D01*
X007094Y017029D01*
X007044Y016979D01*
X007044Y016829D01*
X007046Y016812D01*
X007050Y016795D01*
X007057Y016779D01*
X007067Y016765D01*
X007080Y016752D01*
X007094Y016742D01*
X007110Y016735D01*
X007127Y016731D01*
X007144Y016729D01*
X007744Y016729D01*
X007761Y016731D01*
X007778Y016735D01*
X007794Y016742D01*
X007808Y016752D01*
X007821Y016765D01*
X007831Y016779D01*
X007838Y016795D01*
X007842Y016812D01*
X007844Y016829D01*
X006602Y016822D02*
X006602Y016972D01*
X006552Y017022D01*
X006552Y018422D01*
X006602Y018472D01*
X006602Y018622D01*
X006600Y018639D01*
X006596Y018656D01*
X006589Y018672D01*
X006579Y018686D01*
X006566Y018699D01*
X006552Y018709D01*
X006536Y018716D01*
X006519Y018720D01*
X006502Y018722D01*
X005902Y018722D01*
X005885Y018720D01*
X005868Y018716D01*
X005852Y018709D01*
X005838Y018699D01*
X005825Y018686D01*
X005815Y018672D01*
X005808Y018656D01*
X005804Y018639D01*
X005802Y018622D01*
X005802Y018472D01*
X005852Y018422D01*
X005852Y017022D01*
X005802Y016972D01*
X005802Y016822D01*
X005804Y016805D01*
X005808Y016788D01*
X005815Y016772D01*
X005825Y016758D01*
X005838Y016745D01*
X005852Y016735D01*
X005868Y016728D01*
X005885Y016724D01*
X005902Y016722D01*
X006502Y016722D01*
X006519Y016724D01*
X006536Y016728D01*
X006552Y016735D01*
X006566Y016745D01*
X006579Y016758D01*
X006589Y016772D01*
X006596Y016788D01*
X006600Y016805D01*
X006602Y016822D01*
X005409Y016829D02*
X005409Y016979D01*
X005359Y017029D01*
X005359Y018429D01*
X005409Y018479D01*
X005409Y018629D01*
X005407Y018646D01*
X005403Y018663D01*
X005396Y018679D01*
X005386Y018693D01*
X005373Y018706D01*
X005359Y018716D01*
X005343Y018723D01*
X005326Y018727D01*
X005309Y018729D01*
X004709Y018729D01*
X004692Y018727D01*
X004675Y018723D01*
X004659Y018716D01*
X004645Y018706D01*
X004632Y018693D01*
X004622Y018679D01*
X004615Y018663D01*
X004611Y018646D01*
X004609Y018629D01*
X004609Y018479D01*
X004659Y018429D01*
X004659Y017029D01*
X004609Y016979D01*
X004609Y016829D01*
X004611Y016812D01*
X004615Y016795D01*
X004622Y016779D01*
X004632Y016765D01*
X004645Y016752D01*
X004659Y016742D01*
X004675Y016735D01*
X004692Y016731D01*
X004709Y016729D01*
X005309Y016729D01*
X005326Y016731D01*
X005343Y016735D01*
X005359Y016742D01*
X005373Y016752D01*
X005386Y016765D01*
X005396Y016779D01*
X005403Y016795D01*
X005407Y016812D01*
X005409Y016829D01*
X002954Y016894D02*
X002854Y016894D01*
X002854Y016444D01*
X002754Y016444D01*
X002754Y015844D01*
X002854Y015844D01*
X002854Y015444D01*
X002954Y015444D01*
X002954Y015094D01*
X002854Y015094D01*
X002854Y014794D01*
X002654Y014794D01*
X002854Y014694D02*
X001454Y014694D01*
X001454Y015144D01*
X001454Y017594D01*
X002854Y017594D01*
X002854Y017494D02*
X002654Y017494D01*
X002854Y017494D02*
X002854Y017194D01*
X002954Y017194D01*
X002954Y016894D01*
X002054Y017494D02*
X001554Y017494D01*
X001554Y016394D01*
X001554Y015894D01*
X001554Y014794D01*
X002054Y014794D01*
X001454Y015144D02*
X001354Y015144D01*
X001354Y015644D01*
X001204Y015644D01*
X001204Y016644D01*
X001354Y016644D01*
X001354Y015644D01*
X001554Y015894D02*
X001954Y015894D01*
X001954Y016394D01*
X001554Y016394D01*
X001354Y016644D02*
X001354Y017144D01*
X001454Y017144D01*
X001454Y019194D02*
X001454Y019644D01*
X001454Y022094D01*
X002854Y022094D01*
X002854Y021994D02*
X002654Y021994D01*
X002854Y021994D02*
X002854Y021694D01*
X002954Y021694D01*
X002954Y021394D01*
X002854Y021394D01*
X002854Y020944D01*
X002754Y020944D01*
X002754Y020344D01*
X002854Y020344D01*
X002854Y019944D01*
X002954Y019944D01*
X002954Y019594D01*
X002854Y019594D01*
X002854Y019294D01*
X002654Y019294D01*
X002854Y019194D02*
X001454Y019194D01*
X001554Y019294D02*
X002054Y019294D01*
X001554Y019294D02*
X001554Y020394D01*
X001954Y020394D01*
X001954Y020894D01*
X001554Y020894D01*
X001554Y020394D01*
X001354Y020144D02*
X001204Y020144D01*
X001204Y021144D01*
X001354Y021144D01*
X001354Y020144D01*
X001354Y019644D01*
X001454Y019644D01*
X001554Y020894D02*
X001554Y021994D01*
X002054Y021994D01*
X001454Y021644D02*
X001354Y021644D01*
X001354Y021144D01*
X003829Y023615D02*
X003852Y023673D01*
X003879Y023730D01*
X003909Y023785D01*
X003943Y023838D01*
X003980Y023889D01*
X004020Y023937D01*
X004063Y023983D01*
X004108Y024026D01*
X004157Y024066D01*
X004208Y024102D01*
X004261Y024136D01*
X004316Y024166D01*
X004372Y024193D01*
X004431Y024216D01*
X004490Y024235D01*
X004551Y024251D01*
X004613Y024263D01*
X004675Y024271D01*
X004738Y024275D01*
X004800Y024275D01*
X004863Y024271D01*
X004925Y024263D01*
X004987Y024251D01*
X005048Y024235D01*
X005107Y024216D01*
X005166Y024193D01*
X005222Y024166D01*
X005277Y024136D01*
X005330Y024102D01*
X005381Y024066D01*
X005430Y024026D01*
X005475Y023983D01*
X005518Y023937D01*
X005558Y023889D01*
X005595Y023838D01*
X005629Y023785D01*
X005659Y023730D01*
X005686Y023673D01*
X005709Y023615D01*
X005709Y022935D02*
X005686Y022877D01*
X005659Y022820D01*
X005629Y022765D01*
X005595Y022712D01*
X005558Y022661D01*
X005518Y022613D01*
X005475Y022567D01*
X005430Y022524D01*
X005381Y022484D01*
X005330Y022448D01*
X005277Y022414D01*
X005222Y022384D01*
X005166Y022357D01*
X005107Y022334D01*
X005048Y022315D01*
X004987Y022299D01*
X004925Y022287D01*
X004863Y022279D01*
X004800Y022275D01*
X004738Y022275D01*
X004675Y022279D01*
X004613Y022287D01*
X004551Y022299D01*
X004490Y022315D01*
X004431Y022334D01*
X004372Y022357D01*
X004316Y022384D01*
X004261Y022414D01*
X004208Y022448D01*
X004157Y022484D01*
X004108Y022524D01*
X004063Y022567D01*
X004020Y022613D01*
X003980Y022661D01*
X003943Y022712D01*
X003909Y022765D01*
X003879Y022820D01*
X003852Y022877D01*
X003829Y022935D01*
X004773Y014447D02*
X005373Y014447D01*
X005390Y014445D01*
X005407Y014441D01*
X005423Y014434D01*
X005437Y014424D01*
X005450Y014411D01*
X005460Y014397D01*
X005467Y014381D01*
X005471Y014364D01*
X005473Y014347D01*
X005473Y014197D01*
X005423Y014147D01*
X005423Y012747D01*
X005473Y012697D01*
X005473Y012547D01*
X005471Y012530D01*
X005467Y012513D01*
X005460Y012497D01*
X005450Y012483D01*
X005437Y012470D01*
X005423Y012460D01*
X005407Y012453D01*
X005390Y012449D01*
X005373Y012447D01*
X004773Y012447D01*
X004756Y012449D01*
X004739Y012453D01*
X004723Y012460D01*
X004709Y012470D01*
X004696Y012483D01*
X004686Y012497D01*
X004679Y012513D01*
X004675Y012530D01*
X004673Y012547D01*
X004673Y012697D01*
X004723Y012747D01*
X004723Y014147D01*
X004673Y014197D01*
X004673Y014347D01*
X004675Y014364D01*
X004679Y014381D01*
X004686Y014397D01*
X004696Y014411D01*
X004709Y014424D01*
X004723Y014434D01*
X004739Y014441D01*
X004756Y014445D01*
X004773Y014447D01*
X006168Y014352D02*
X006168Y014202D01*
X006218Y014152D01*
X006218Y012752D01*
X006168Y012702D01*
X006168Y012552D01*
X006170Y012535D01*
X006174Y012518D01*
X006181Y012502D01*
X006191Y012488D01*
X006204Y012475D01*
X006218Y012465D01*
X006234Y012458D01*
X006251Y012454D01*
X006268Y012452D01*
X006868Y012452D01*
X006885Y012454D01*
X006902Y012458D01*
X006918Y012465D01*
X006932Y012475D01*
X006945Y012488D01*
X006955Y012502D01*
X006962Y012518D01*
X006966Y012535D01*
X006968Y012552D01*
X006968Y012702D01*
X006918Y012752D01*
X006918Y014152D01*
X006968Y014202D01*
X006968Y014352D01*
X006966Y014369D01*
X006962Y014386D01*
X006955Y014402D01*
X006945Y014416D01*
X006932Y014429D01*
X006918Y014439D01*
X006902Y014446D01*
X006885Y014450D01*
X006868Y014452D01*
X006268Y014452D01*
X006251Y014450D01*
X006234Y014446D01*
X006218Y014439D01*
X006204Y014429D01*
X006191Y014416D01*
X006181Y014402D01*
X006174Y014386D01*
X006170Y014369D01*
X006168Y014352D01*
X002838Y013704D02*
X001438Y013704D01*
X001438Y011254D01*
X001338Y011254D01*
X001338Y011754D01*
X001188Y011754D01*
X001188Y012754D01*
X001338Y012754D01*
X001338Y011754D01*
X001538Y012004D02*
X001538Y010904D01*
X002038Y010904D01*
X002638Y010904D02*
X002838Y010904D01*
X002838Y011204D01*
X002938Y011204D01*
X002938Y011554D01*
X002838Y011554D01*
X002838Y011954D01*
X002738Y011954D01*
X002738Y012554D01*
X002838Y012554D01*
X002838Y013004D01*
X002938Y013004D01*
X002938Y013304D01*
X002838Y013304D01*
X002838Y013604D01*
X002638Y013604D01*
X002038Y013604D02*
X001538Y013604D01*
X001538Y012504D01*
X001538Y012004D01*
X001938Y012004D01*
X001938Y012504D01*
X001538Y012504D01*
X001338Y012754D02*
X001338Y013254D01*
X001438Y013254D01*
X001438Y011254D02*
X001438Y010804D01*
X002838Y010804D01*
X014754Y020034D02*
X014754Y020534D01*
X014756Y020560D01*
X014761Y020586D01*
X014769Y020611D01*
X014781Y020634D01*
X014795Y020656D01*
X014813Y020675D01*
X014832Y020693D01*
X014854Y020707D01*
X014877Y020719D01*
X014902Y020727D01*
X014928Y020732D01*
X014954Y020734D01*
X016254Y020734D01*
X016280Y020732D01*
X016306Y020727D01*
X016331Y020719D01*
X016354Y020707D01*
X016376Y020693D01*
X016395Y020675D01*
X016413Y020656D01*
X016427Y020634D01*
X016439Y020611D01*
X016447Y020586D01*
X016452Y020560D01*
X016454Y020534D01*
X016454Y020034D01*
X016452Y020008D01*
X016447Y019982D01*
X016439Y019957D01*
X016427Y019934D01*
X016413Y019912D01*
X016395Y019893D01*
X016376Y019875D01*
X016354Y019861D01*
X016331Y019849D01*
X016306Y019841D01*
X016280Y019836D01*
X016254Y019834D01*
X014954Y019834D01*
X014928Y019836D01*
X014902Y019841D01*
X014877Y019849D01*
X014854Y019861D01*
X014832Y019875D01*
X014813Y019893D01*
X014795Y019912D01*
X014781Y019934D01*
X014769Y019957D01*
X014761Y019982D01*
X014756Y020008D01*
X014754Y020034D01*
X016786Y020034D02*
X016786Y020534D01*
X016788Y020560D01*
X016793Y020586D01*
X016801Y020611D01*
X016813Y020634D01*
X016827Y020656D01*
X016845Y020675D01*
X016864Y020693D01*
X016886Y020707D01*
X016909Y020719D01*
X016934Y020727D01*
X016960Y020732D01*
X016986Y020734D01*
X018286Y020734D01*
X018312Y020732D01*
X018338Y020727D01*
X018363Y020719D01*
X018386Y020707D01*
X018408Y020693D01*
X018427Y020675D01*
X018445Y020656D01*
X018459Y020634D01*
X018471Y020611D01*
X018479Y020586D01*
X018484Y020560D01*
X018486Y020534D01*
X018486Y020034D01*
X018484Y020008D01*
X018479Y019982D01*
X018471Y019957D01*
X018459Y019934D01*
X018445Y019912D01*
X018427Y019893D01*
X018408Y019875D01*
X018386Y019861D01*
X018363Y019849D01*
X018338Y019841D01*
X018312Y019836D01*
X018286Y019834D01*
X016986Y019834D01*
X016960Y019836D01*
X016934Y019841D01*
X016909Y019849D01*
X016886Y019861D01*
X016864Y019875D01*
X016845Y019893D01*
X016827Y019912D01*
X016813Y019934D01*
X016801Y019957D01*
X016793Y019982D01*
X016788Y020008D01*
X016786Y020034D01*
X023708Y019357D02*
X023708Y018857D01*
X023958Y018607D01*
X023708Y018357D01*
X023708Y017857D01*
X023958Y017607D01*
X023708Y017357D01*
X023708Y016857D01*
X023958Y016607D01*
X023708Y016357D01*
X023708Y015857D01*
X023958Y015607D01*
X025458Y015607D01*
X025708Y015857D01*
X025708Y016357D01*
X025458Y016607D01*
X025708Y016857D01*
X025708Y017357D01*
X025458Y017607D01*
X025708Y017857D01*
X025708Y018357D01*
X025458Y018607D01*
X025708Y018857D01*
X025708Y019357D01*
X025458Y019607D01*
X023958Y019607D01*
X023708Y019357D01*
X026057Y018524D02*
X026057Y018374D01*
X026107Y018324D01*
X026107Y016924D01*
X026057Y016874D01*
X026057Y016724D01*
X026059Y016707D01*
X026063Y016690D01*
X026070Y016674D01*
X026080Y016660D01*
X026093Y016647D01*
X026107Y016637D01*
X026123Y016630D01*
X026140Y016626D01*
X026157Y016624D01*
X026757Y016624D01*
X026774Y016626D01*
X026791Y016630D01*
X026807Y016637D01*
X026821Y016647D01*
X026834Y016660D01*
X026844Y016674D01*
X026851Y016690D01*
X026855Y016707D01*
X026857Y016724D01*
X026857Y016874D01*
X026807Y016924D01*
X026807Y018324D01*
X026857Y018374D01*
X026857Y018524D01*
X026855Y018541D01*
X026851Y018558D01*
X026844Y018574D01*
X026834Y018588D01*
X026821Y018601D01*
X026807Y018611D01*
X026791Y018618D01*
X026774Y018622D01*
X026757Y018624D01*
X026157Y018624D01*
X026140Y018622D01*
X026123Y018618D01*
X026107Y018611D01*
X026093Y018601D01*
X026080Y018588D01*
X026070Y018574D01*
X026063Y018558D01*
X026059Y018541D01*
X026057Y018524D01*
X027253Y018551D02*
X027253Y018401D01*
X027303Y018351D01*
X027303Y016951D01*
X027253Y016901D01*
X027253Y016751D01*
X027255Y016734D01*
X027259Y016717D01*
X027266Y016701D01*
X027276Y016687D01*
X027289Y016674D01*
X027303Y016664D01*
X027319Y016657D01*
X027336Y016653D01*
X027353Y016651D01*
X027953Y016651D01*
X027970Y016653D01*
X027987Y016657D01*
X028003Y016664D01*
X028017Y016674D01*
X028030Y016687D01*
X028040Y016701D01*
X028047Y016717D01*
X028051Y016734D01*
X028053Y016751D01*
X028053Y016901D01*
X028003Y016951D01*
X028003Y018351D01*
X028053Y018401D01*
X028053Y018551D01*
X028051Y018568D01*
X028047Y018585D01*
X028040Y018601D01*
X028030Y018615D01*
X028017Y018628D01*
X028003Y018638D01*
X027987Y018645D01*
X027970Y018649D01*
X027953Y018651D01*
X027353Y018651D01*
X027336Y018649D01*
X027319Y018645D01*
X027303Y018638D01*
X027289Y018628D01*
X027276Y018615D01*
X027266Y018601D01*
X027259Y018585D01*
X027255Y018568D01*
X027253Y018551D01*
X028537Y018524D02*
X028537Y018374D01*
X028587Y018324D01*
X028587Y016924D01*
X028537Y016874D01*
X028537Y016724D01*
X028539Y016707D01*
X028543Y016690D01*
X028550Y016674D01*
X028560Y016660D01*
X028573Y016647D01*
X028587Y016637D01*
X028603Y016630D01*
X028620Y016626D01*
X028637Y016624D01*
X029237Y016624D01*
X029254Y016626D01*
X029271Y016630D01*
X029287Y016637D01*
X029301Y016647D01*
X029314Y016660D01*
X029324Y016674D01*
X029331Y016690D01*
X029335Y016707D01*
X029337Y016724D01*
X029337Y016874D01*
X029287Y016924D01*
X029287Y018324D01*
X029337Y018374D01*
X029337Y018524D01*
X029335Y018541D01*
X029331Y018558D01*
X029324Y018574D01*
X029314Y018588D01*
X029301Y018601D01*
X029287Y018611D01*
X029271Y018618D01*
X029254Y018622D01*
X029237Y018624D01*
X028637Y018624D01*
X028620Y018622D01*
X028603Y018618D01*
X028587Y018611D01*
X028573Y018601D01*
X028560Y018588D01*
X028550Y018574D01*
X028543Y018558D01*
X028539Y018541D01*
X028537Y018524D01*
X030039Y018764D02*
X030039Y019264D01*
X030289Y019514D01*
X030039Y019764D01*
X030039Y020264D01*
X030289Y020514D01*
X030789Y020514D01*
X031039Y020264D01*
X031039Y019764D01*
X030789Y019514D01*
X031039Y019264D01*
X031039Y018764D01*
X030789Y018514D01*
X031039Y018264D01*
X031039Y017764D01*
X030789Y017514D01*
X031039Y017264D01*
X031039Y016764D01*
X030789Y016514D01*
X031039Y016264D01*
X031039Y015764D01*
X030789Y015514D01*
X031039Y015264D01*
X031039Y014764D01*
X030789Y014514D01*
X030289Y014514D01*
X030039Y014764D01*
X030039Y015264D01*
X030289Y015514D01*
X030039Y015764D01*
X030039Y016264D01*
X030289Y016514D01*
X030039Y016764D01*
X030039Y017264D01*
X030289Y017514D01*
X030039Y017764D01*
X030039Y018264D01*
X030289Y018514D01*
X030039Y018764D01*
X029106Y023627D02*
X029083Y023685D01*
X029056Y023742D01*
X029026Y023797D01*
X028992Y023850D01*
X028955Y023901D01*
X028915Y023949D01*
X028872Y023995D01*
X028827Y024038D01*
X028778Y024078D01*
X028727Y024114D01*
X028674Y024148D01*
X028619Y024178D01*
X028563Y024205D01*
X028504Y024228D01*
X028445Y024247D01*
X028384Y024263D01*
X028322Y024275D01*
X028260Y024283D01*
X028197Y024287D01*
X028135Y024287D01*
X028072Y024283D01*
X028010Y024275D01*
X027948Y024263D01*
X027887Y024247D01*
X027828Y024228D01*
X027769Y024205D01*
X027713Y024178D01*
X027658Y024148D01*
X027605Y024114D01*
X027554Y024078D01*
X027505Y024038D01*
X027460Y023995D01*
X027417Y023949D01*
X027377Y023901D01*
X027340Y023850D01*
X027306Y023797D01*
X027276Y023742D01*
X027249Y023685D01*
X027226Y023627D01*
X027226Y022947D02*
X027249Y022889D01*
X027276Y022832D01*
X027306Y022777D01*
X027340Y022724D01*
X027377Y022673D01*
X027417Y022625D01*
X027460Y022579D01*
X027505Y022536D01*
X027554Y022496D01*
X027605Y022460D01*
X027658Y022426D01*
X027713Y022396D01*
X027769Y022369D01*
X027828Y022346D01*
X027887Y022327D01*
X027948Y022311D01*
X028010Y022299D01*
X028072Y022291D01*
X028135Y022287D01*
X028197Y022287D01*
X028260Y022291D01*
X028322Y022299D01*
X028384Y022311D01*
X028445Y022327D01*
X028504Y022346D01*
X028563Y022369D01*
X028619Y022396D01*
X028674Y022426D01*
X028727Y022460D01*
X028778Y022496D01*
X028827Y022536D01*
X028872Y022579D01*
X028915Y022625D01*
X028955Y022673D01*
X028992Y022724D01*
X029026Y022777D01*
X029056Y022832D01*
X029083Y022889D01*
X029106Y022947D01*
X026377Y014422D02*
X026379Y014478D01*
X026385Y014535D01*
X026395Y014590D01*
X026409Y014645D01*
X026426Y014699D01*
X026448Y014751D01*
X026473Y014801D01*
X026501Y014850D01*
X026533Y014897D01*
X026568Y014941D01*
X026606Y014983D01*
X026647Y015022D01*
X026691Y015057D01*
X026737Y015090D01*
X026785Y015119D01*
X026835Y015145D01*
X026887Y015168D01*
X026941Y015186D01*
X026995Y015201D01*
X027050Y015212D01*
X027106Y015219D01*
X027163Y015222D01*
X027219Y015221D01*
X027276Y015216D01*
X027331Y015207D01*
X027386Y015194D01*
X027440Y015177D01*
X027493Y015157D01*
X027544Y015133D01*
X027593Y015105D01*
X027640Y015074D01*
X027685Y015040D01*
X027728Y015002D01*
X027767Y014962D01*
X027804Y014919D01*
X027837Y014874D01*
X027867Y014826D01*
X027894Y014776D01*
X027917Y014725D01*
X027937Y014672D01*
X027953Y014618D01*
X027965Y014562D01*
X027973Y014507D01*
X027977Y014450D01*
X027977Y014394D01*
X027973Y014337D01*
X027965Y014282D01*
X027953Y014226D01*
X027937Y014172D01*
X027917Y014119D01*
X027894Y014068D01*
X027867Y014018D01*
X027837Y013970D01*
X027804Y013925D01*
X027767Y013882D01*
X027728Y013842D01*
X027685Y013804D01*
X027640Y013770D01*
X027593Y013739D01*
X027544Y013711D01*
X027493Y013687D01*
X027440Y013667D01*
X027386Y013650D01*
X027331Y013637D01*
X027276Y013628D01*
X027219Y013623D01*
X027163Y013622D01*
X027106Y013625D01*
X027050Y013632D01*
X026995Y013643D01*
X026941Y013658D01*
X026887Y013676D01*
X026835Y013699D01*
X026785Y013725D01*
X026737Y013754D01*
X026691Y013787D01*
X026647Y013822D01*
X026606Y013861D01*
X026568Y013903D01*
X026533Y013947D01*
X026501Y013994D01*
X026473Y014043D01*
X026448Y014093D01*
X026426Y014145D01*
X026409Y014199D01*
X026395Y014254D01*
X026385Y014309D01*
X026379Y014366D01*
X026377Y014422D01*
X025478Y014165D02*
X025320Y014165D01*
X025257Y013615D02*
X023607Y013615D01*
X023624Y013195D02*
X024924Y013195D01*
X024950Y013193D01*
X024976Y013188D01*
X025001Y013180D01*
X025024Y013168D01*
X025046Y013154D01*
X025065Y013136D01*
X025083Y013117D01*
X025097Y013095D01*
X025109Y013072D01*
X025117Y013047D01*
X025122Y013021D01*
X025124Y012995D01*
X025124Y012495D01*
X025122Y012469D01*
X025117Y012443D01*
X025109Y012418D01*
X025097Y012395D01*
X025083Y012373D01*
X025065Y012354D01*
X025046Y012336D01*
X025024Y012322D01*
X025001Y012310D01*
X024976Y012302D01*
X024950Y012297D01*
X024924Y012295D01*
X023624Y012295D01*
X023598Y012297D01*
X023572Y012302D01*
X023547Y012310D01*
X023524Y012322D01*
X023502Y012336D01*
X023483Y012354D01*
X023465Y012373D01*
X023451Y012395D01*
X023439Y012418D01*
X023431Y012443D01*
X023426Y012469D01*
X023424Y012495D01*
X023424Y012995D01*
X023426Y013021D01*
X023431Y013047D01*
X023439Y013072D01*
X023451Y013095D01*
X023465Y013117D01*
X023483Y013136D01*
X023502Y013154D01*
X023524Y013168D01*
X023547Y013180D01*
X023572Y013188D01*
X023598Y013193D01*
X023624Y013195D01*
X023545Y014165D02*
X023387Y014165D01*
X024320Y014165D02*
X024545Y014165D01*
X025257Y013615D02*
X025294Y013666D01*
X025329Y013719D01*
X025361Y013775D01*
X025389Y013832D01*
X025413Y013891D01*
X025434Y013951D01*
X025451Y014012D01*
X025465Y014074D01*
X025474Y014137D01*
X025480Y014200D01*
X025482Y014264D01*
X025480Y014328D01*
X025474Y014391D01*
X025465Y014454D01*
X025452Y014516D01*
X025434Y014577D01*
X025414Y014637D01*
X025389Y014696D01*
X025362Y014753D01*
X025330Y014809D01*
X025296Y014862D01*
X025258Y014913D01*
X025217Y014962D01*
X025173Y015008D01*
X025127Y015052D01*
X025078Y015093D01*
X025027Y015130D01*
X024973Y015165D01*
X024918Y015196D01*
X024861Y015224D01*
X024802Y015248D01*
X024742Y015268D01*
X024122Y015268D02*
X024062Y015248D01*
X024003Y015224D01*
X023946Y015196D01*
X023891Y015165D01*
X023837Y015130D01*
X023786Y015093D01*
X023737Y015052D01*
X023691Y015008D01*
X023647Y014962D01*
X023606Y014913D01*
X023568Y014862D01*
X023534Y014809D01*
X023502Y014753D01*
X023475Y014696D01*
X023450Y014637D01*
X023430Y014577D01*
X023412Y014516D01*
X023399Y014454D01*
X023390Y014391D01*
X023384Y014328D01*
X023382Y014264D01*
X023384Y014200D01*
X023390Y014137D01*
X023399Y014074D01*
X023413Y014012D01*
X023430Y013951D01*
X023451Y013891D01*
X023475Y013832D01*
X023503Y013775D01*
X023535Y013719D01*
X023570Y013666D01*
X023607Y013615D01*
X025419Y012996D02*
X025419Y012496D01*
X025421Y012470D01*
X025426Y012444D01*
X025434Y012419D01*
X025446Y012396D01*
X025460Y012374D01*
X025478Y012355D01*
X025497Y012337D01*
X025519Y012323D01*
X025542Y012311D01*
X025567Y012303D01*
X025593Y012298D01*
X025619Y012296D01*
X026919Y012296D01*
X026945Y012298D01*
X026971Y012303D01*
X026996Y012311D01*
X027019Y012323D01*
X027041Y012337D01*
X027060Y012355D01*
X027078Y012374D01*
X027092Y012396D01*
X027104Y012419D01*
X027112Y012444D01*
X027117Y012470D01*
X027119Y012496D01*
X027119Y012996D01*
X027117Y013022D01*
X027112Y013048D01*
X027104Y013073D01*
X027092Y013096D01*
X027078Y013118D01*
X027060Y013137D01*
X027041Y013155D01*
X027019Y013169D01*
X026996Y013181D01*
X026971Y013189D01*
X026945Y013194D01*
X026919Y013196D01*
X025619Y013196D01*
X025593Y013194D01*
X025567Y013189D01*
X025542Y013181D01*
X025519Y013169D01*
X025497Y013155D01*
X025478Y013137D01*
X025460Y013118D01*
X025446Y013096D01*
X025434Y013073D01*
X025426Y013048D01*
X025421Y013022D01*
X025419Y012996D01*
X025671Y011826D02*
X025821Y011826D01*
X025871Y011776D01*
X027271Y011776D01*
X027321Y011826D01*
X027471Y011826D01*
X027488Y011824D01*
X027505Y011820D01*
X027521Y011813D01*
X027535Y011803D01*
X027548Y011790D01*
X027558Y011776D01*
X027565Y011760D01*
X027569Y011743D01*
X027571Y011726D01*
X027571Y011126D01*
X027569Y011109D01*
X027565Y011092D01*
X027558Y011076D01*
X027548Y011062D01*
X027535Y011049D01*
X027521Y011039D01*
X027505Y011032D01*
X027488Y011028D01*
X027471Y011026D01*
X027321Y011026D01*
X027271Y011076D01*
X025871Y011076D01*
X025821Y011026D01*
X025671Y011026D01*
X025654Y011028D01*
X025637Y011032D01*
X025621Y011039D01*
X025607Y011049D01*
X025594Y011062D01*
X025584Y011076D01*
X025577Y011092D01*
X025573Y011109D01*
X025571Y011126D01*
X025571Y011726D01*
X025573Y011743D01*
X025577Y011760D01*
X025584Y011776D01*
X025594Y011790D01*
X025607Y011803D01*
X025621Y011813D01*
X025637Y011820D01*
X025654Y011824D01*
X025671Y011826D01*
X027477Y013772D02*
X027477Y013972D01*
X027577Y013872D02*
X027377Y013872D01*
X028547Y007007D02*
X028490Y006951D01*
X028490Y006724D01*
X028547Y006667D01*
X028660Y006667D01*
X028717Y006724D01*
X028717Y006837D01*
X028604Y006837D01*
X028717Y006951D02*
X028660Y007007D01*
X028547Y007007D01*
X028859Y007007D02*
X028859Y006667D01*
X029085Y006667D02*
X028859Y007007D01*
X029085Y007007D02*
X029085Y006667D01*
X029227Y006667D02*
X029397Y006667D01*
X029454Y006724D01*
X029454Y006951D01*
X029397Y007007D01*
X029227Y007007D01*
X029227Y006667D01*
X029284Y006257D02*
X029227Y006201D01*
X029227Y005974D01*
X029284Y005917D01*
X029397Y005917D01*
X029454Y005974D01*
X029454Y006201D02*
X029397Y006257D01*
X029284Y006257D01*
X029085Y006201D02*
X029029Y006257D01*
X028915Y006257D01*
X028859Y006201D01*
X028859Y005974D01*
X028915Y005917D01*
X029029Y005917D01*
X029085Y005974D01*
X028717Y006031D02*
X028717Y006257D01*
X028717Y006031D02*
X028604Y005917D01*
X028490Y006031D01*
X028490Y006257D01*
X028604Y005507D02*
X028490Y005394D01*
X028490Y005167D01*
X028490Y005337D02*
X028717Y005337D01*
X028717Y005394D02*
X028717Y005167D01*
X028859Y005167D02*
X028859Y005394D01*
X029029Y005394D01*
X029085Y005337D01*
X029085Y005167D01*
X029284Y005224D02*
X029284Y005451D01*
X029340Y005394D02*
X029227Y005394D01*
X029284Y005224D02*
X029340Y005167D01*
X029472Y005167D02*
X029529Y005167D01*
X029529Y005224D01*
X029472Y005224D01*
X029472Y005167D01*
X028717Y005394D02*
X028604Y005507D01*
D12*
X028937Y016549D03*
X027653Y016576D03*
X026457Y016549D03*
X026457Y018699D03*
X027653Y018726D03*
X028937Y018699D03*
X007444Y018804D03*
X006202Y018797D03*
X005009Y018804D03*
X005009Y016654D03*
X006202Y016647D03*
X007444Y016654D03*
X006568Y014527D03*
X005073Y014522D03*
X005073Y012372D03*
X006568Y012377D03*
D13*
X015474Y019984D02*
X015474Y020584D01*
X015724Y020584D02*
X015724Y019984D01*
X017516Y019984D02*
X017516Y020584D01*
X017766Y020584D02*
X017766Y019984D01*
X024144Y013045D02*
X024144Y012445D01*
X024394Y012445D02*
X024394Y013045D01*
X026149Y013046D02*
X026149Y012446D01*
X026399Y012446D02*
X026399Y013046D01*
D14*
X028151Y012844D02*
X028151Y012344D01*
X028401Y012094D01*
X028901Y012094D01*
X029151Y012344D01*
X029151Y012844D01*
X028901Y013094D01*
X029151Y013344D01*
X029151Y013844D01*
X028901Y014094D01*
X028401Y014094D01*
X028151Y013844D01*
X028151Y013344D01*
X028401Y013094D01*
X028151Y012844D01*
X021705Y013599D02*
X021405Y013549D01*
X021305Y013279D02*
X021475Y013039D01*
X021285Y012849D01*
X021045Y013019D01*
X020945Y012959D01*
X020755Y013409D01*
X020435Y013409D02*
X020235Y012959D01*
X020135Y013019D01*
X019895Y012849D01*
X019715Y013039D01*
X019875Y013279D01*
X019775Y013549D02*
X019475Y013599D01*
X019475Y013859D01*
X019775Y013919D01*
X019885Y014169D02*
X019705Y014429D01*
X019895Y014609D01*
X020155Y014429D01*
X020405Y014529D02*
X020455Y014849D01*
X020725Y014849D01*
X020775Y014529D01*
X021025Y014429D02*
X021285Y014609D01*
X021475Y014429D01*
X021295Y014169D01*
X021405Y013919D02*
X021705Y013859D01*
X021705Y013599D01*
X021404Y013919D02*
X021389Y013971D01*
X021370Y014022D01*
X021348Y014072D01*
X021323Y014120D01*
X021294Y014167D01*
X021405Y013546D02*
X021395Y013499D01*
X021382Y013453D01*
X021367Y013408D01*
X021349Y013363D01*
X021328Y013320D01*
X021305Y013279D01*
X019879Y013282D02*
X019851Y013332D01*
X019827Y013384D01*
X019806Y013437D01*
X019789Y013492D01*
X019776Y013548D01*
X020158Y014432D02*
X020203Y014457D01*
X020250Y014480D01*
X020298Y014499D01*
X020347Y014516D01*
X020397Y014529D01*
X020435Y013419D02*
X020402Y013437D01*
X020372Y013458D01*
X020343Y013482D01*
X020317Y013509D01*
X020295Y013538D01*
X020275Y013570D01*
X020258Y013603D01*
X020245Y013638D01*
X020236Y013674D01*
X020230Y013711D01*
X020228Y013748D01*
X020230Y013785D01*
X020235Y013822D01*
X020245Y013858D01*
X020257Y013893D01*
X020274Y013927D01*
X020293Y013958D01*
X020316Y013988D01*
X020342Y014015D01*
X020370Y014039D01*
X020401Y014060D01*
X020433Y014078D01*
X020467Y014093D01*
X020503Y014104D01*
X020539Y014112D01*
X020576Y014116D01*
X020614Y014116D01*
X020651Y014112D01*
X020687Y014104D01*
X020723Y014093D01*
X020757Y014078D01*
X020789Y014060D01*
X020820Y014039D01*
X020848Y014015D01*
X020874Y013988D01*
X020897Y013958D01*
X020916Y013927D01*
X020933Y013893D01*
X020945Y013858D01*
X020955Y013822D01*
X020960Y013785D01*
X020962Y013748D01*
X020960Y013711D01*
X020954Y013674D01*
X020945Y013638D01*
X020932Y013603D01*
X020915Y013570D01*
X020895Y013538D01*
X020873Y013509D01*
X020847Y013482D01*
X020818Y013458D01*
X020788Y013437D01*
X020755Y013419D01*
X021029Y014430D02*
X020982Y014457D01*
X020933Y014480D01*
X020883Y014500D01*
X020832Y014517D01*
X020780Y014531D01*
X019886Y014164D02*
X019859Y014117D01*
X019835Y014070D01*
X019814Y014021D01*
X019796Y013970D01*
X019782Y013919D01*
X014514Y009782D02*
X014514Y009282D01*
X014264Y009032D01*
X013764Y009032D01*
X013514Y009282D01*
X013264Y009032D01*
X012764Y009032D01*
X012514Y009282D01*
X012264Y009032D01*
X011764Y009032D01*
X011514Y009282D01*
X011264Y009032D01*
X010764Y009032D01*
X010514Y009282D01*
X010264Y009032D01*
X009764Y009032D01*
X009514Y009282D01*
X009264Y009032D01*
X008764Y009032D01*
X008514Y009282D01*
X008264Y009032D01*
X007764Y009032D01*
X007514Y009282D01*
X007264Y009032D01*
X006764Y009032D01*
X006514Y009282D01*
X006514Y009782D01*
X006764Y010032D01*
X007264Y010032D01*
X007514Y009782D01*
X007764Y010032D01*
X008264Y010032D01*
X008514Y009782D01*
X008764Y010032D01*
X009264Y010032D01*
X009514Y009782D01*
X009764Y010032D01*
X010264Y010032D01*
X010514Y009782D01*
X010764Y010032D01*
X011264Y010032D01*
X011514Y009782D01*
X011764Y010032D01*
X012264Y010032D01*
X012514Y009782D01*
X012764Y010032D01*
X013264Y010032D01*
X013514Y009782D01*
X013764Y010032D01*
X014264Y010032D01*
X014514Y009782D01*
X014664Y004180D02*
X015164Y004180D01*
X015414Y003930D01*
X015664Y004180D01*
X016164Y004180D01*
X016414Y003930D01*
X016664Y004180D01*
X017164Y004180D01*
X017414Y003930D01*
X017664Y004180D01*
X018164Y004180D01*
X018414Y003930D01*
X018664Y004180D01*
X019164Y004180D01*
X019414Y003930D01*
X019664Y004180D01*
X020164Y004180D01*
X020414Y003930D01*
X020664Y004180D01*
X021164Y004180D01*
X021414Y003930D01*
X021664Y004180D01*
X022164Y004180D01*
X022414Y003930D01*
X022664Y004180D01*
X023164Y004180D01*
X023414Y003930D01*
X023664Y004180D01*
X024164Y004180D01*
X024414Y003930D01*
X024664Y004180D01*
X025164Y004180D01*
X025414Y003930D01*
X025664Y004180D01*
X026164Y004180D01*
X026414Y003930D01*
X026414Y003430D01*
X026164Y003180D01*
X025664Y003180D01*
X025414Y003430D01*
X025164Y003180D01*
X024664Y003180D01*
X024414Y003430D01*
X024164Y003180D01*
X023664Y003180D01*
X023414Y003430D01*
X023164Y003180D01*
X022664Y003180D01*
X022414Y003430D01*
X022164Y003180D01*
X021664Y003180D01*
X021414Y003430D01*
X021164Y003180D01*
X020664Y003180D01*
X020414Y003430D01*
X020164Y003180D01*
X019664Y003180D01*
X019414Y003430D01*
X019164Y003180D01*
X018664Y003180D01*
X018414Y003430D01*
X018164Y003180D01*
X017664Y003180D01*
X017414Y003430D01*
X017164Y003180D01*
X016664Y003180D01*
X016414Y003430D01*
X016164Y003180D01*
X015664Y003180D01*
X015414Y003430D01*
X015164Y003180D01*
X014664Y003180D01*
X014414Y003430D01*
X014164Y003180D01*
X013664Y003180D01*
X013414Y003430D01*
X013164Y003180D01*
X012664Y003180D01*
X012414Y003430D01*
X012164Y003180D01*
X011664Y003180D01*
X011414Y003430D01*
X011164Y003180D01*
X010664Y003180D01*
X010414Y003430D01*
X010164Y003180D01*
X009664Y003180D01*
X009414Y003430D01*
X009164Y003180D01*
X008664Y003180D01*
X008414Y003430D01*
X008164Y003180D01*
X007664Y003180D01*
X007414Y003430D01*
X007164Y003180D01*
X006664Y003180D01*
X006414Y003430D01*
X006414Y003930D01*
X006664Y004180D01*
X007164Y004180D01*
X007414Y003930D01*
X007664Y004180D01*
X008164Y004180D01*
X008414Y003930D01*
X008664Y004180D01*
X009164Y004180D01*
X009414Y003930D01*
X009664Y004180D01*
X010164Y004180D01*
X010414Y003930D01*
X010664Y004180D01*
X011164Y004180D01*
X011414Y003930D01*
X011664Y004180D01*
X012164Y004180D01*
X012414Y003930D01*
X012664Y004180D01*
X013164Y004180D01*
X013414Y003930D01*
X013664Y004180D01*
X014164Y004180D01*
X014414Y003930D01*
X014664Y004180D01*
X003117Y003849D02*
X003007Y003739D01*
X002617Y003739D01*
X002227Y003739D01*
X002117Y003849D01*
X002617Y003839D02*
X002617Y003739D01*
X002617Y004589D02*
X002617Y004889D01*
X002617Y005639D02*
X002617Y005739D01*
X002227Y005739D01*
X002117Y005629D01*
X002617Y005739D02*
X003007Y005739D01*
X003117Y005629D01*
X006709Y022178D02*
X007209Y022178D01*
X007459Y022428D01*
X007709Y022178D01*
X008209Y022178D01*
X008459Y022428D01*
X008709Y022178D01*
X009209Y022178D01*
X009459Y022428D01*
X009459Y022928D01*
X009209Y023178D01*
X008709Y023178D01*
X008459Y022928D01*
X008209Y023178D01*
X007709Y023178D01*
X007459Y022928D01*
X007209Y023178D01*
X006709Y023178D01*
X006459Y022928D01*
X006459Y022428D01*
X006709Y022178D01*
X011242Y022265D02*
X012030Y022265D01*
X012074Y022270D01*
X012118Y022279D01*
X012162Y022290D01*
X012204Y022306D01*
X012245Y022324D01*
X012284Y022346D01*
X012321Y022370D01*
X012357Y022398D01*
X012390Y022428D01*
X012420Y022461D01*
X012448Y022496D01*
X012473Y022533D01*
X012495Y022572D01*
X012514Y022613D01*
X012529Y022655D01*
X012541Y022698D01*
X012541Y023407D02*
X012529Y023450D01*
X012514Y023492D01*
X012495Y023533D01*
X012473Y023572D01*
X012448Y023609D01*
X012420Y023644D01*
X012390Y023677D01*
X012357Y023707D01*
X012321Y023735D01*
X012284Y023759D01*
X012245Y023781D01*
X012204Y023799D01*
X012162Y023815D01*
X012118Y023826D01*
X012074Y023835D01*
X012030Y023840D01*
X011242Y023840D01*
X011198Y023835D01*
X011154Y023826D01*
X011110Y023815D01*
X011068Y023799D01*
X011027Y023781D01*
X010988Y023759D01*
X010951Y023735D01*
X010915Y023707D01*
X010882Y023677D01*
X010852Y023644D01*
X010824Y023609D01*
X010799Y023572D01*
X010777Y023533D01*
X010758Y023492D01*
X010743Y023450D01*
X010731Y023407D01*
X010731Y022698D02*
X010743Y022655D01*
X010758Y022613D01*
X010777Y022572D01*
X010799Y022533D01*
X010824Y022496D01*
X010852Y022461D01*
X010882Y022428D01*
X010915Y022398D01*
X010951Y022370D01*
X010988Y022346D01*
X011027Y022324D01*
X011068Y022306D01*
X011110Y022290D01*
X011154Y022279D01*
X011198Y022270D01*
X011242Y022265D01*
X021025Y023292D02*
X021183Y023292D01*
X021246Y023842D02*
X022895Y023842D01*
X022958Y023292D02*
X023116Y023292D01*
X023458Y022928D02*
X023708Y023178D01*
X024208Y023178D01*
X024458Y022928D01*
X024708Y023178D01*
X025208Y023178D01*
X025458Y022928D01*
X025708Y023178D01*
X026208Y023178D01*
X026458Y022928D01*
X026458Y022428D01*
X026208Y022178D01*
X025708Y022178D01*
X025458Y022428D01*
X025208Y022178D01*
X024708Y022178D01*
X024458Y022428D01*
X024208Y022178D01*
X023708Y022178D01*
X023458Y022428D01*
X023458Y022928D01*
X022183Y023292D02*
X021958Y023292D01*
D15*
X024007Y010393D02*
X029913Y010393D01*
X026460Y009137D02*
X026460Y007137D01*
X026466Y007079D01*
X026469Y007021D01*
X026468Y006963D01*
X026462Y006905D01*
X026454Y006847D01*
X026441Y006790D01*
X026424Y006735D01*
X026404Y006680D01*
X026381Y006627D01*
X026354Y006575D01*
X026323Y006526D01*
X026289Y006478D01*
X026253Y006433D01*
X026213Y006390D01*
X026171Y006350D01*
X026126Y006313D01*
X026079Y006279D01*
X026030Y006248D01*
X025978Y006220D01*
X025925Y006196D01*
X025871Y006176D01*
X025815Y006159D01*
X025759Y006145D01*
X025701Y006136D01*
X025643Y006130D01*
X025585Y006128D01*
X025527Y006130D01*
X025469Y006136D01*
X025411Y006145D01*
X025355Y006159D01*
X025299Y006176D01*
X025245Y006196D01*
X025192Y006220D01*
X025140Y006248D01*
X025091Y006279D01*
X025044Y006313D01*
X024999Y006350D01*
X024957Y006390D01*
X024917Y006433D01*
X024881Y006478D01*
X024847Y006526D01*
X024816Y006575D01*
X024789Y006627D01*
X024766Y006680D01*
X024746Y006735D01*
X024729Y006790D01*
X024716Y006847D01*
X024708Y006905D01*
X024702Y006963D01*
X024701Y007021D01*
X024704Y007079D01*
X024710Y007137D01*
X024710Y009137D01*
X024712Y009195D01*
X024718Y009254D01*
X024728Y009311D01*
X024741Y009368D01*
X024758Y009424D01*
X024779Y009479D01*
X024804Y009532D01*
X024832Y009583D01*
X024864Y009632D01*
X024898Y009679D01*
X024936Y009724D01*
X024977Y009766D01*
X025020Y009805D01*
X025066Y009841D01*
X025114Y009875D01*
X025164Y009904D01*
X025217Y009931D01*
X025271Y009954D01*
X025326Y009973D01*
X025382Y009988D01*
X025439Y010000D01*
X025497Y010008D01*
X025556Y010012D01*
X025614Y010012D01*
X025673Y010008D01*
X025731Y010000D01*
X025788Y009988D01*
X025844Y009973D01*
X025899Y009954D01*
X025953Y009931D01*
X026006Y009904D01*
X026056Y009875D01*
X026104Y009841D01*
X026150Y009805D01*
X026193Y009766D01*
X026234Y009724D01*
X026272Y009679D01*
X026306Y009632D01*
X026338Y009583D01*
X026366Y009532D01*
X026391Y009479D01*
X026412Y009424D01*
X026429Y009368D01*
X026442Y009311D01*
X026452Y009254D01*
X026458Y009195D01*
X026460Y009137D01*
X024007Y004881D02*
X029913Y004881D01*
X005050Y006526D02*
X005050Y007234D01*
X004066Y006526D02*
X003239Y006526D01*
X001428Y006526D02*
X001428Y009597D01*
X003003Y009597D02*
X004066Y009597D01*
X005050Y009597D02*
X005050Y008888D01*
X004138Y011858D02*
X004213Y011933D01*
X004213Y012084D01*
X004138Y012159D01*
X004063Y012159D01*
X003988Y012084D01*
X003988Y011933D01*
X003913Y011858D01*
X003838Y011858D01*
X003763Y011933D01*
X003763Y012084D01*
X003838Y012159D01*
X003838Y012319D02*
X003763Y012394D01*
X003763Y012544D01*
X003838Y012619D01*
X003913Y012619D01*
X003988Y012544D01*
X004063Y012619D01*
X004138Y012619D01*
X004213Y012544D01*
X004213Y012394D01*
X004138Y012319D01*
X003988Y012469D02*
X003988Y012544D01*
X003721Y015604D02*
X003796Y015679D01*
X003796Y015829D01*
X003721Y015904D01*
X003646Y015904D01*
X003570Y015829D01*
X003570Y015679D01*
X003495Y015604D01*
X003420Y015604D01*
X003345Y015679D01*
X003345Y015829D01*
X003420Y015904D01*
X003420Y016064D02*
X003345Y016139D01*
X003345Y016289D01*
X003420Y016364D01*
X003495Y016364D01*
X003796Y016064D01*
X003796Y016364D01*
X003424Y020323D02*
X003499Y020398D01*
X003499Y020549D01*
X003424Y020624D01*
X003349Y020624D01*
X003274Y020549D01*
X003274Y020398D01*
X003199Y020323D01*
X003124Y020323D01*
X003049Y020398D01*
X003049Y020549D01*
X003124Y020624D01*
X003199Y020784D02*
X003049Y020934D01*
X003499Y020934D01*
X003499Y020784D02*
X003499Y021084D01*
D16*
X014004Y015190D02*
X016704Y015190D01*
X016755Y015188D01*
X016806Y015183D01*
X016856Y015173D01*
X016906Y015160D01*
X016954Y015144D01*
X017001Y015124D01*
X017047Y015100D01*
X017090Y015074D01*
X017132Y015044D01*
X017171Y015011D01*
X017208Y014976D01*
X017242Y014938D01*
X017273Y014897D01*
X017302Y014855D01*
X017327Y014810D01*
X017348Y014764D01*
X017367Y014716D01*
X017381Y014667D01*
X017392Y014617D01*
X017400Y014567D01*
X017404Y014516D01*
X017404Y014464D01*
X017400Y014413D01*
X017392Y014363D01*
X017381Y014313D01*
X017367Y014264D01*
X017348Y014216D01*
X017327Y014170D01*
X017302Y014125D01*
X017273Y014083D01*
X017242Y014042D01*
X017208Y014004D01*
X017171Y013969D01*
X017132Y013936D01*
X017090Y013906D01*
X017047Y013880D01*
X017001Y013856D01*
X016954Y013836D01*
X016906Y013820D01*
X016856Y013807D01*
X016806Y013797D01*
X016755Y013792D01*
X016704Y013790D01*
X014004Y013790D01*
X013953Y013792D01*
X013902Y013797D01*
X013852Y013807D01*
X013802Y013820D01*
X013754Y013836D01*
X013707Y013856D01*
X013661Y013880D01*
X013618Y013906D01*
X013576Y013936D01*
X013537Y013969D01*
X013500Y014004D01*
X013466Y014042D01*
X013435Y014083D01*
X013406Y014125D01*
X013381Y014170D01*
X013360Y014216D01*
X013341Y014264D01*
X013327Y014313D01*
X013316Y014363D01*
X013308Y014413D01*
X013304Y014464D01*
X013304Y014516D01*
X013308Y014567D01*
X013316Y014617D01*
X013327Y014667D01*
X013341Y014716D01*
X013360Y014764D01*
X013381Y014810D01*
X013406Y014855D01*
X013435Y014897D01*
X013466Y014938D01*
X013500Y014976D01*
X013537Y015011D01*
X013576Y015044D01*
X013618Y015074D01*
X013661Y015100D01*
X013707Y015124D01*
X013754Y015144D01*
X013802Y015160D01*
X013852Y015173D01*
X013902Y015183D01*
X013953Y015188D01*
X014004Y015190D01*
D17*
X014066Y013149D02*
X014066Y012849D01*
X014066Y012549D01*
X014266Y012549D02*
X014266Y012849D01*
X014266Y013149D01*
X016363Y013150D02*
X016363Y012850D01*
X016363Y012550D01*
X016563Y012550D02*
X016563Y012850D01*
X016563Y013150D01*
X005769Y022705D02*
X005769Y022925D01*
X005769Y023625D02*
X005769Y023845D01*
X005769Y022705D02*
X005734Y022648D01*
X005696Y022593D01*
X005655Y022540D01*
X005611Y022490D01*
X005564Y022443D01*
X005514Y022398D01*
X005462Y022356D01*
X005407Y022317D01*
X005351Y022282D01*
X005292Y022250D01*
X005232Y022221D01*
X005170Y022196D01*
X005106Y022175D01*
X005042Y022157D01*
X004977Y022143D01*
X004910Y022133D01*
X004844Y022126D01*
X004777Y022124D01*
X004710Y022125D01*
X004644Y022131D01*
X004577Y022140D01*
X004512Y022153D01*
X004447Y022170D01*
X004384Y022190D01*
X004321Y022215D01*
X004260Y022242D01*
X004201Y022274D01*
X004144Y022308D01*
X004089Y022346D01*
X004036Y022387D01*
X003986Y022431D01*
X003938Y022478D01*
X003893Y022528D01*
X003852Y022580D01*
X003813Y022634D01*
X003777Y022691D01*
X003745Y022750D01*
X003716Y022810D01*
X003691Y022872D01*
X003669Y022935D01*
X003669Y023615D02*
X003691Y023678D01*
X003716Y023740D01*
X003745Y023800D01*
X003777Y023859D01*
X003813Y023916D01*
X003852Y023970D01*
X003893Y024022D01*
X003938Y024072D01*
X003986Y024119D01*
X004036Y024163D01*
X004089Y024204D01*
X004144Y024242D01*
X004201Y024276D01*
X004260Y024308D01*
X004321Y024335D01*
X004384Y024360D01*
X004447Y024380D01*
X004512Y024397D01*
X004577Y024410D01*
X004644Y024419D01*
X004710Y024425D01*
X004777Y024426D01*
X004844Y024424D01*
X004910Y024417D01*
X004977Y024407D01*
X005042Y024393D01*
X005106Y024375D01*
X005170Y024354D01*
X005232Y024329D01*
X005292Y024300D01*
X005351Y024268D01*
X005407Y024233D01*
X005462Y024194D01*
X005514Y024152D01*
X005564Y024107D01*
X005611Y024060D01*
X005655Y024010D01*
X005696Y023957D01*
X005734Y023902D01*
X005769Y023845D01*
X027066Y023627D02*
X027088Y023690D01*
X027113Y023752D01*
X027142Y023812D01*
X027174Y023871D01*
X027210Y023928D01*
X027249Y023982D01*
X027290Y024034D01*
X027335Y024084D01*
X027383Y024131D01*
X027433Y024175D01*
X027486Y024216D01*
X027541Y024254D01*
X027598Y024288D01*
X027657Y024320D01*
X027718Y024347D01*
X027781Y024372D01*
X027844Y024392D01*
X027909Y024409D01*
X027974Y024422D01*
X028041Y024431D01*
X028107Y024437D01*
X028174Y024438D01*
X028241Y024436D01*
X028307Y024429D01*
X028374Y024419D01*
X028439Y024405D01*
X028503Y024387D01*
X028567Y024366D01*
X028629Y024341D01*
X028689Y024312D01*
X028748Y024280D01*
X028804Y024245D01*
X028859Y024206D01*
X028911Y024164D01*
X028961Y024119D01*
X029008Y024072D01*
X029052Y024022D01*
X029093Y023969D01*
X029131Y023914D01*
X029166Y023857D01*
X029166Y023637D01*
X029166Y022937D02*
X029166Y022717D01*
X029131Y022660D01*
X029093Y022605D01*
X029052Y022552D01*
X029008Y022502D01*
X028961Y022455D01*
X028911Y022410D01*
X028859Y022368D01*
X028804Y022329D01*
X028748Y022294D01*
X028689Y022262D01*
X028629Y022233D01*
X028567Y022208D01*
X028503Y022187D01*
X028439Y022169D01*
X028374Y022155D01*
X028307Y022145D01*
X028241Y022138D01*
X028174Y022136D01*
X028107Y022137D01*
X028041Y022143D01*
X027974Y022152D01*
X027909Y022165D01*
X027844Y022182D01*
X027781Y022202D01*
X027718Y022227D01*
X027657Y022254D01*
X027598Y022286D01*
X027541Y022320D01*
X027486Y022358D01*
X027433Y022399D01*
X027383Y022443D01*
X027335Y022490D01*
X027290Y022540D01*
X027249Y022592D01*
X027210Y022646D01*
X027174Y022703D01*
X027142Y022762D01*
X027113Y022822D01*
X027088Y022884D01*
X027066Y022947D01*
X026334Y002570D02*
X026334Y002270D01*
X026334Y001970D01*
X026134Y001970D02*
X026134Y002270D01*
X026134Y002570D01*
X024125Y002555D02*
X024125Y002255D01*
X024125Y001955D01*
X023925Y001955D02*
X023925Y002255D01*
X023925Y002555D01*
X022008Y002586D02*
X022008Y002286D01*
X022008Y001986D01*
X021808Y001986D02*
X021808Y002286D01*
X021808Y002586D01*
X019838Y002570D02*
X019838Y002270D01*
X019838Y001970D01*
X019638Y001970D02*
X019638Y002270D01*
X019638Y002570D01*
X028345Y002570D02*
X028345Y002270D01*
X028345Y001970D01*
X028545Y001970D02*
X028545Y002270D01*
X028545Y002570D01*
D18*
X026606Y011182D02*
X026489Y011182D01*
X026430Y011240D01*
X026305Y011182D02*
X026188Y011299D01*
X026246Y011299D02*
X026071Y011299D01*
X026071Y011182D02*
X026071Y011532D01*
X026246Y011532D01*
X026305Y011474D01*
X026305Y011357D01*
X026246Y011299D01*
X026430Y011474D02*
X026489Y011532D01*
X026606Y011532D01*
X026664Y011474D01*
X026664Y011415D01*
X026606Y011357D01*
X026664Y011299D01*
X026664Y011240D01*
X026606Y011182D01*
X026606Y011357D02*
X026547Y011357D01*
X026524Y017229D02*
X026524Y017404D01*
X026466Y017463D01*
X026349Y017463D01*
X026291Y017404D01*
X026291Y017229D01*
X026641Y017229D01*
X026524Y017346D02*
X026641Y017463D01*
X026583Y017588D02*
X026641Y017646D01*
X026641Y017763D01*
X026583Y017822D01*
X026466Y017822D01*
X026408Y017763D01*
X026408Y017705D01*
X026466Y017588D01*
X026291Y017588D01*
X026291Y017822D01*
X027491Y017773D02*
X027491Y017656D01*
X027550Y017598D01*
X027550Y017472D02*
X027667Y017472D01*
X027725Y017414D01*
X027725Y017238D01*
X027842Y017238D02*
X027491Y017238D01*
X027491Y017414D01*
X027550Y017472D01*
X027725Y017355D02*
X027842Y017472D01*
X027842Y017598D02*
X027608Y017831D01*
X027550Y017831D01*
X027491Y017773D01*
X027842Y017831D02*
X027842Y017598D01*
X006738Y013607D02*
X006738Y013490D01*
X006680Y013432D01*
X006621Y013432D01*
X006563Y013490D01*
X006563Y013607D01*
X006621Y013665D01*
X006680Y013665D01*
X006738Y013607D01*
X006563Y013607D02*
X006504Y013665D01*
X006446Y013665D01*
X006388Y013607D01*
X006388Y013490D01*
X006446Y013432D01*
X006504Y013432D01*
X006563Y013490D01*
X006563Y013306D02*
X006621Y013248D01*
X006621Y013072D01*
X006738Y013072D02*
X006388Y013072D01*
X006388Y013248D01*
X006446Y013306D01*
X006563Y013306D01*
X006621Y013189D02*
X006738Y013306D01*
X005243Y013301D02*
X005126Y013184D01*
X005126Y013242D02*
X005126Y013067D01*
X005243Y013067D02*
X004893Y013067D01*
X004893Y013242D01*
X004951Y013301D01*
X005068Y013301D01*
X005126Y013242D01*
X005184Y013426D02*
X004951Y013660D01*
X004893Y013660D01*
X004893Y013426D01*
X005184Y013426D02*
X005243Y013426D01*
X005131Y017325D02*
X004781Y017325D01*
X004781Y017500D01*
X004840Y017558D01*
X004956Y017558D01*
X005015Y017500D01*
X005015Y017325D01*
X005015Y017441D02*
X005131Y017558D01*
X005073Y017684D02*
X004956Y017684D01*
X004956Y017859D01*
X005015Y017917D01*
X005073Y017917D01*
X005131Y017859D01*
X005131Y017742D01*
X005073Y017684D01*
X004956Y017684D02*
X004840Y017800D01*
X004781Y017917D01*
X001859Y008470D02*
X001859Y008470D01*
D19*
X013714Y006486D02*
X013714Y006293D01*
X013762Y006244D01*
X013859Y006244D01*
X013907Y006293D01*
X014008Y006244D02*
X014202Y006244D01*
X014105Y006244D02*
X014105Y006535D01*
X014008Y006438D01*
X013907Y006486D02*
X013859Y006535D01*
X013762Y006535D01*
X013714Y006486D01*
X014303Y006389D02*
X014303Y006293D01*
X014351Y006244D01*
X014448Y006244D01*
X014497Y006293D01*
X014497Y006341D01*
X014448Y006389D01*
X014303Y006389D01*
X014400Y006486D01*
X014497Y006535D01*
X015605Y006462D02*
X015605Y006268D01*
X015654Y006220D01*
X015750Y006220D01*
X015799Y006268D01*
X015900Y006220D02*
X016094Y006220D01*
X015997Y006220D02*
X015997Y006510D01*
X015900Y006414D01*
X015799Y006462D02*
X015750Y006510D01*
X015654Y006510D01*
X015605Y006462D01*
X016195Y006365D02*
X016388Y006365D01*
X016340Y006220D02*
X016340Y006510D01*
X016195Y006365D01*
X017497Y006313D02*
X017546Y006265D01*
X017642Y006265D01*
X017691Y006313D01*
X017792Y006265D02*
X017985Y006265D01*
X017889Y006265D02*
X017889Y006555D01*
X017792Y006458D01*
X017691Y006507D02*
X017642Y006555D01*
X017546Y006555D01*
X017497Y006507D01*
X017497Y006313D01*
X018087Y006313D02*
X018135Y006265D01*
X018232Y006265D01*
X018280Y006313D01*
X018280Y006362D01*
X018232Y006410D01*
X018183Y006410D01*
X018232Y006410D02*
X018280Y006458D01*
X018280Y006507D01*
X018232Y006555D01*
X018135Y006555D01*
X018087Y006507D01*
X019385Y006532D02*
X019385Y006338D01*
X019434Y006290D01*
X019530Y006290D01*
X019579Y006338D01*
X019680Y006290D02*
X019873Y006290D01*
X019777Y006290D02*
X019777Y006580D01*
X019680Y006483D01*
X019579Y006532D02*
X019530Y006580D01*
X019434Y006580D01*
X019385Y006532D01*
X019975Y006580D02*
X019975Y006435D01*
X020071Y006483D01*
X020120Y006483D01*
X020168Y006435D01*
X020168Y006338D01*
X020120Y006290D01*
X020023Y006290D01*
X019975Y006338D01*
X019975Y006580D02*
X020168Y006580D01*
X020090Y003126D02*
X020000Y003126D01*
X019955Y003081D01*
X020090Y003126D02*
X020135Y003081D01*
X020135Y003036D01*
X019955Y002856D01*
X020135Y002856D01*
X019859Y002856D02*
X019679Y002856D01*
X019769Y002856D02*
X019769Y003126D01*
X019679Y003036D01*
X019583Y003081D02*
X019538Y003126D01*
X019448Y003126D01*
X019403Y003081D01*
X019403Y002901D01*
X019448Y002856D01*
X019538Y002856D01*
X019583Y002901D01*
X021573Y002917D02*
X021618Y002872D01*
X021708Y002872D01*
X021753Y002917D01*
X021849Y002872D02*
X022029Y002872D01*
X021939Y002872D02*
X021939Y003142D01*
X021849Y003052D01*
X021753Y003097D02*
X021708Y003142D01*
X021618Y003142D01*
X021573Y003097D01*
X021573Y002917D01*
X022125Y002872D02*
X022305Y002872D01*
X022215Y002872D02*
X022215Y003142D01*
X022125Y003052D01*
X023654Y003066D02*
X023654Y002885D01*
X023699Y002840D01*
X023789Y002840D01*
X023834Y002885D01*
X023930Y002840D02*
X024110Y002840D01*
X024020Y002840D02*
X024020Y003111D01*
X023930Y003021D01*
X023834Y003066D02*
X023789Y003111D01*
X023699Y003111D01*
X023654Y003066D01*
X024206Y003066D02*
X024206Y002885D01*
X024386Y003066D01*
X024386Y002885D01*
X024341Y002840D01*
X024251Y002840D01*
X024206Y002885D01*
X024206Y003066D02*
X024251Y003111D01*
X024341Y003111D01*
X024386Y003066D01*
X026026Y003065D02*
X026026Y002885D01*
X026071Y002840D01*
X026162Y002840D01*
X026207Y002885D01*
X026303Y002885D02*
X026348Y002840D01*
X026438Y002840D01*
X026483Y002885D01*
X026483Y003065D01*
X026438Y003110D01*
X026348Y003110D01*
X026303Y003065D01*
X026303Y003020D01*
X026348Y002975D01*
X026483Y002975D01*
X026207Y003065D02*
X026162Y003110D01*
X026071Y003110D01*
X026026Y003065D01*
X028205Y003081D02*
X028205Y002901D01*
X028250Y002856D01*
X028341Y002856D01*
X028386Y002901D01*
X028482Y002901D02*
X028482Y002946D01*
X028527Y002991D01*
X028617Y002991D01*
X028662Y002946D01*
X028662Y002901D01*
X028617Y002856D01*
X028527Y002856D01*
X028482Y002901D01*
X028527Y002991D02*
X028482Y003036D01*
X028482Y003081D01*
X028527Y003126D01*
X028617Y003126D01*
X028662Y003081D01*
X028662Y003036D01*
X028617Y002991D01*
X028386Y003081D02*
X028341Y003126D01*
X028250Y003126D01*
X028205Y003081D01*
X028192Y021487D02*
X028095Y021584D01*
X028143Y021584D02*
X027998Y021584D01*
X027998Y021487D02*
X027998Y021778D01*
X028143Y021778D01*
X028192Y021729D01*
X028192Y021633D01*
X028143Y021584D01*
X028293Y021487D02*
X028390Y021487D01*
X028341Y021487D02*
X028341Y021778D01*
X028293Y021778D02*
X028390Y021778D01*
X028489Y021633D02*
X028683Y021633D01*
X028784Y021778D02*
X028784Y021487D01*
X028977Y021487D01*
X029079Y021487D02*
X029272Y021487D01*
X029373Y021487D02*
X029518Y021487D01*
X029567Y021536D01*
X029567Y021729D01*
X029518Y021778D01*
X029373Y021778D01*
X029373Y021487D01*
X029175Y021633D02*
X029079Y021633D01*
X029079Y021778D02*
X029079Y021487D01*
X029079Y021778D02*
X029272Y021778D01*
X029668Y021681D02*
X029765Y021778D01*
X029765Y021487D01*
X029861Y021487D02*
X029668Y021487D01*
X027897Y021778D02*
X027703Y021778D01*
X027800Y021778D02*
X027800Y021487D01*
X006052Y021683D02*
X005858Y021683D01*
X006052Y021876D01*
X006052Y021924D01*
X006003Y021973D01*
X005907Y021973D01*
X005858Y021924D01*
X005757Y021924D02*
X005709Y021973D01*
X005564Y021973D01*
X005564Y021683D01*
X005709Y021683D01*
X005757Y021731D01*
X005757Y021924D01*
X005463Y021973D02*
X005269Y021973D01*
X005269Y021683D01*
X005463Y021683D01*
X005366Y021828D02*
X005269Y021828D01*
X005168Y021683D02*
X004974Y021683D01*
X004974Y021973D01*
X004873Y021828D02*
X004680Y021828D01*
X004580Y021973D02*
X004483Y021973D01*
X004532Y021973D02*
X004532Y021683D01*
X004580Y021683D02*
X004483Y021683D01*
X004382Y021683D02*
X004285Y021779D01*
X004334Y021779D02*
X004189Y021779D01*
X004189Y021683D02*
X004189Y021973D01*
X004334Y021973D01*
X004382Y021924D01*
X004382Y021828D01*
X004334Y021779D01*
X004088Y021973D02*
X003894Y021973D01*
X003991Y021973D02*
X003991Y021683D01*
D20*
X021215Y023861D02*
X021272Y023816D01*
X021271Y023817D02*
X021235Y023767D01*
X021202Y023716D01*
X021172Y023663D01*
X021145Y023607D01*
X021122Y023551D01*
X021102Y023493D01*
X021085Y023434D01*
X021073Y023374D01*
X021063Y023314D01*
X021058Y023253D01*
X021056Y023192D01*
X021058Y023131D01*
X021063Y023070D01*
X021073Y023009D01*
X021085Y022949D01*
X021102Y022890D01*
X021122Y022833D01*
X021145Y022776D01*
X021172Y022721D01*
X021202Y022668D01*
X021235Y022616D01*
X021271Y022567D01*
X021311Y022520D01*
X021353Y022475D01*
X021397Y022433D01*
X021444Y022394D01*
X021493Y022358D01*
X021545Y022325D01*
X021598Y022295D01*
X021653Y022268D01*
X021709Y022244D01*
X021767Y022224D01*
X021746Y022156D01*
X021746Y022155D01*
X021684Y022177D01*
X021624Y022202D01*
X021565Y022231D01*
X021508Y022263D01*
X021453Y022299D01*
X021400Y022338D01*
X021349Y022380D01*
X021302Y022424D01*
X021257Y022472D01*
X021215Y022523D01*
X021176Y022575D01*
X021140Y022630D01*
X021108Y022688D01*
X021080Y022746D01*
X021055Y022807D01*
X021033Y022869D01*
X021016Y022932D01*
X021002Y022996D01*
X020992Y023061D01*
X020986Y023126D01*
X020984Y023192D01*
X020986Y023257D01*
X020992Y023323D01*
X021002Y023387D01*
X021015Y023452D01*
X021033Y023515D01*
X021054Y023577D01*
X021079Y023637D01*
X021108Y023696D01*
X021140Y023753D01*
X021176Y023808D01*
X021215Y023861D01*
X021220Y023857D01*
X021182Y023804D01*
X021146Y023750D01*
X021114Y023693D01*
X021086Y023634D01*
X021061Y023574D01*
X021040Y023513D01*
X021022Y023450D01*
X021009Y023386D01*
X020999Y023322D01*
X020993Y023257D01*
X020991Y023192D01*
X020993Y023127D01*
X020999Y023062D01*
X021009Y022997D01*
X021022Y022934D01*
X021040Y022871D01*
X021061Y022810D01*
X021086Y022749D01*
X021114Y022691D01*
X021146Y022634D01*
X021182Y022579D01*
X021220Y022527D01*
X021262Y022477D01*
X021307Y022429D01*
X021354Y022385D01*
X021404Y022343D01*
X021456Y022304D01*
X021511Y022269D01*
X021568Y022237D01*
X021626Y022208D01*
X021687Y022183D01*
X021748Y022162D01*
X021750Y022169D01*
X021689Y022190D01*
X021629Y022215D01*
X021571Y022243D01*
X021515Y022275D01*
X021460Y022310D01*
X021408Y022349D01*
X021359Y022390D01*
X021312Y022434D01*
X021267Y022481D01*
X021226Y022531D01*
X021188Y022583D01*
X021152Y022638D01*
X021121Y022694D01*
X021092Y022752D01*
X021068Y022812D01*
X021047Y022873D01*
X021029Y022935D01*
X021016Y022999D01*
X021006Y023063D01*
X021000Y023127D01*
X020998Y023192D01*
X021000Y023256D01*
X021006Y023321D01*
X021015Y023385D01*
X021029Y023448D01*
X021046Y023510D01*
X021067Y023572D01*
X021092Y023631D01*
X021120Y023690D01*
X021152Y023746D01*
X021187Y023800D01*
X021226Y023852D01*
X021231Y023848D01*
X021193Y023796D01*
X021158Y023742D01*
X021127Y023686D01*
X021099Y023629D01*
X021074Y023569D01*
X021053Y023508D01*
X021036Y023446D01*
X021022Y023384D01*
X021013Y023320D01*
X021007Y023256D01*
X021005Y023192D01*
X021007Y023128D01*
X021013Y023064D01*
X021022Y023000D01*
X021036Y022937D01*
X021053Y022875D01*
X021074Y022814D01*
X021099Y022755D01*
X021127Y022697D01*
X021158Y022641D01*
X021193Y022587D01*
X021231Y022536D01*
X021273Y022486D01*
X021317Y022439D01*
X021363Y022395D01*
X021413Y022354D01*
X021464Y022316D01*
X021518Y022281D01*
X021574Y022249D01*
X021632Y022221D01*
X021691Y022197D01*
X021752Y022176D01*
X021754Y022182D01*
X021694Y022203D01*
X021635Y022228D01*
X021578Y022256D01*
X021522Y022287D01*
X021468Y022322D01*
X021417Y022360D01*
X021368Y022400D01*
X021321Y022444D01*
X021278Y022491D01*
X021237Y022540D01*
X021199Y022591D01*
X021164Y022645D01*
X021133Y022701D01*
X021105Y022758D01*
X021081Y022817D01*
X021060Y022877D01*
X021043Y022939D01*
X021029Y023001D01*
X021020Y023064D01*
X021014Y023128D01*
X021012Y023192D01*
X021014Y023256D01*
X021020Y023319D01*
X021029Y023382D01*
X021043Y023445D01*
X021060Y023506D01*
X021081Y023567D01*
X021105Y023626D01*
X021133Y023683D01*
X021164Y023739D01*
X021199Y023792D01*
X021237Y023844D01*
X021242Y023839D01*
X021205Y023788D01*
X021170Y023735D01*
X021139Y023680D01*
X021111Y023623D01*
X021087Y023564D01*
X021066Y023504D01*
X021049Y023443D01*
X021036Y023381D01*
X021027Y023318D01*
X021021Y023255D01*
X021019Y023192D01*
X021021Y023128D01*
X021027Y023065D01*
X021036Y023003D01*
X021050Y022941D01*
X021067Y022879D01*
X021087Y022819D01*
X021112Y022761D01*
X021139Y022704D01*
X021170Y022649D01*
X021205Y022595D01*
X021242Y022544D01*
X021283Y022495D01*
X021326Y022449D01*
X021373Y022406D01*
X021421Y022365D01*
X021472Y022327D01*
X021526Y022293D01*
X021581Y022262D01*
X021638Y022234D01*
X021696Y022210D01*
X021756Y022189D01*
X021758Y022196D01*
X021699Y022216D01*
X021641Y022240D01*
X021584Y022268D01*
X021529Y022299D01*
X021476Y022333D01*
X021426Y022371D01*
X021377Y022411D01*
X021331Y022454D01*
X021288Y022500D01*
X021248Y022549D01*
X021211Y022599D01*
X021176Y022652D01*
X021145Y022707D01*
X021118Y022764D01*
X021094Y022822D01*
X021073Y022881D01*
X021056Y022942D01*
X021043Y023004D01*
X021034Y023066D01*
X021028Y023129D01*
X021026Y023192D01*
X021028Y023255D01*
X021034Y023317D01*
X021043Y023380D01*
X021056Y023441D01*
X021073Y023502D01*
X021094Y023562D01*
X021118Y023620D01*
X021145Y023677D01*
X021176Y023731D01*
X021210Y023784D01*
X021248Y023835D01*
X021253Y023831D01*
X021216Y023780D01*
X021182Y023728D01*
X021151Y023673D01*
X021124Y023617D01*
X021100Y023559D01*
X021080Y023500D01*
X021063Y023440D01*
X021050Y023379D01*
X021041Y023317D01*
X021035Y023254D01*
X021033Y023192D01*
X021035Y023129D01*
X021041Y023067D01*
X021050Y023005D01*
X021063Y022944D01*
X021080Y022884D01*
X021100Y022824D01*
X021124Y022767D01*
X021152Y022710D01*
X021182Y022656D01*
X021216Y022603D01*
X021253Y022553D01*
X021293Y022505D01*
X021336Y022459D01*
X021382Y022416D01*
X021430Y022376D01*
X021480Y022339D01*
X021533Y022305D01*
X021587Y022274D01*
X021644Y022247D01*
X021701Y022223D01*
X021760Y022202D01*
X021763Y022209D01*
X021704Y022229D01*
X021646Y022253D01*
X021591Y022280D01*
X021536Y022311D01*
X021484Y022345D01*
X021434Y022382D01*
X021386Y022421D01*
X021341Y022464D01*
X021299Y022509D01*
X021259Y022557D01*
X021222Y022607D01*
X021188Y022659D01*
X021158Y022714D01*
X021131Y022769D01*
X021107Y022827D01*
X021087Y022886D01*
X021070Y022946D01*
X021057Y023006D01*
X021048Y023068D01*
X021042Y023130D01*
X021040Y023192D01*
X021042Y023254D01*
X021047Y023316D01*
X021057Y023377D01*
X021070Y023438D01*
X021086Y023498D01*
X021107Y023557D01*
X021130Y023614D01*
X021158Y023670D01*
X021188Y023724D01*
X021222Y023776D01*
X021259Y023826D01*
X021264Y023822D01*
X021228Y023772D01*
X021194Y023721D01*
X021164Y023667D01*
X021137Y023611D01*
X021113Y023554D01*
X021093Y023496D01*
X021077Y023436D01*
X021064Y023376D01*
X021054Y023315D01*
X021049Y023253D01*
X021047Y023192D01*
X021049Y023130D01*
X021054Y023069D01*
X021064Y023008D01*
X021077Y022947D01*
X021093Y022888D01*
X021113Y022829D01*
X021137Y022772D01*
X021164Y022717D01*
X021194Y022663D01*
X021228Y022611D01*
X021264Y022561D01*
X021304Y022514D01*
X021346Y022469D01*
X021391Y022427D01*
X021439Y022387D01*
X021488Y022351D01*
X021540Y022317D01*
X021594Y022287D01*
X021649Y022260D01*
X021706Y022236D01*
X021765Y022216D01*
X021767Y022222D01*
X021709Y022242D01*
X021652Y022266D01*
X021597Y022293D01*
X021544Y022323D01*
X021492Y022356D01*
X021443Y022393D01*
X021396Y022432D01*
X021351Y022474D01*
X021309Y022519D01*
X021270Y022566D01*
X021234Y022615D01*
X021200Y022667D01*
X021170Y022720D01*
X021143Y022775D01*
X021120Y022832D01*
X021100Y022890D01*
X021084Y022949D01*
X021071Y023009D01*
X021061Y023069D01*
X021056Y023130D01*
X021054Y023192D01*
X021056Y023253D01*
X021061Y023314D01*
X021071Y023375D01*
X021083Y023435D01*
X021100Y023494D01*
X021120Y023552D01*
X021143Y023608D01*
X021170Y023663D01*
X021200Y023717D01*
X021233Y023768D01*
X021270Y023818D01*
X022393Y022156D02*
X022372Y022225D01*
X022373Y022224D02*
X022431Y022244D01*
X022487Y022268D01*
X022542Y022295D01*
X022595Y022325D01*
X022647Y022358D01*
X022696Y022394D01*
X022743Y022433D01*
X022787Y022475D01*
X022829Y022520D01*
X022868Y022567D01*
X022905Y022616D01*
X022938Y022668D01*
X022968Y022721D01*
X022995Y022776D01*
X023018Y022833D01*
X023038Y022890D01*
X023055Y022949D01*
X023067Y023009D01*
X023077Y023070D01*
X023082Y023131D01*
X023084Y023192D01*
X023082Y023253D01*
X023077Y023314D01*
X023067Y023374D01*
X023055Y023434D01*
X023038Y023493D01*
X023018Y023551D01*
X022995Y023607D01*
X022968Y023663D01*
X022938Y023716D01*
X022905Y023767D01*
X022869Y023817D01*
X022925Y023861D01*
X022964Y023808D01*
X023000Y023753D01*
X023032Y023696D01*
X023061Y023637D01*
X023086Y023577D01*
X023107Y023515D01*
X023125Y023451D01*
X023138Y023387D01*
X023148Y023323D01*
X023154Y023257D01*
X023156Y023192D01*
X023154Y023126D01*
X023148Y023061D01*
X023138Y022996D01*
X023124Y022932D01*
X023107Y022869D01*
X023085Y022807D01*
X023060Y022746D01*
X023032Y022688D01*
X023000Y022630D01*
X022964Y022575D01*
X022925Y022523D01*
X022883Y022472D01*
X022838Y022424D01*
X022791Y022379D01*
X022740Y022338D01*
X022687Y022299D01*
X022632Y022263D01*
X022575Y022231D01*
X022516Y022202D01*
X022456Y022177D01*
X022394Y022155D01*
X022392Y022162D01*
X022453Y022183D01*
X022514Y022208D01*
X022572Y022237D01*
X022629Y022269D01*
X022684Y022304D01*
X022736Y022343D01*
X022786Y022385D01*
X022833Y022429D01*
X022878Y022477D01*
X022920Y022527D01*
X022958Y022579D01*
X022994Y022634D01*
X023026Y022691D01*
X023054Y022749D01*
X023079Y022810D01*
X023100Y022871D01*
X023118Y022934D01*
X023131Y022997D01*
X023141Y023062D01*
X023147Y023127D01*
X023149Y023192D01*
X023147Y023257D01*
X023141Y023322D01*
X023131Y023386D01*
X023118Y023450D01*
X023100Y023513D01*
X023079Y023574D01*
X023054Y023634D01*
X023026Y023693D01*
X022994Y023750D01*
X022958Y023804D01*
X022920Y023857D01*
X022914Y023852D01*
X022953Y023800D01*
X022988Y023746D01*
X023020Y023690D01*
X023048Y023631D01*
X023073Y023572D01*
X023094Y023510D01*
X023111Y023448D01*
X023125Y023385D01*
X023134Y023321D01*
X023140Y023256D01*
X023142Y023192D01*
X023140Y023127D01*
X023134Y023063D01*
X023124Y022999D01*
X023111Y022935D01*
X023093Y022873D01*
X023072Y022812D01*
X023048Y022752D01*
X023019Y022694D01*
X022988Y022638D01*
X022952Y022583D01*
X022914Y022531D01*
X022873Y022481D01*
X022828Y022434D01*
X022781Y022390D01*
X022732Y022349D01*
X022680Y022310D01*
X022625Y022275D01*
X022569Y022243D01*
X022511Y022215D01*
X022451Y022190D01*
X022390Y022169D01*
X022388Y022176D01*
X022449Y022197D01*
X022508Y022221D01*
X022566Y022249D01*
X022622Y022281D01*
X022676Y022316D01*
X022727Y022354D01*
X022777Y022395D01*
X022823Y022439D01*
X022867Y022486D01*
X022909Y022536D01*
X022947Y022587D01*
X022982Y022641D01*
X023013Y022697D01*
X023041Y022755D01*
X023066Y022814D01*
X023087Y022875D01*
X023104Y022937D01*
X023118Y023000D01*
X023127Y023064D01*
X023133Y023128D01*
X023135Y023192D01*
X023133Y023256D01*
X023127Y023320D01*
X023118Y023384D01*
X023104Y023446D01*
X023087Y023508D01*
X023066Y023569D01*
X023041Y023629D01*
X023013Y023686D01*
X022982Y023742D01*
X022947Y023796D01*
X022909Y023848D01*
X022903Y023844D01*
X022941Y023792D01*
X022976Y023739D01*
X023007Y023683D01*
X023035Y023626D01*
X023059Y023567D01*
X023080Y023506D01*
X023097Y023445D01*
X023111Y023382D01*
X023120Y023319D01*
X023126Y023256D01*
X023128Y023192D01*
X023126Y023128D01*
X023120Y023064D01*
X023111Y023001D01*
X023097Y022939D01*
X023080Y022877D01*
X023059Y022817D01*
X023035Y022758D01*
X023007Y022701D01*
X022976Y022645D01*
X022941Y022591D01*
X022903Y022540D01*
X022862Y022491D01*
X022819Y022444D01*
X022772Y022400D01*
X022723Y022360D01*
X022672Y022322D01*
X022618Y022287D01*
X022562Y022256D01*
X022505Y022228D01*
X022446Y022203D01*
X022386Y022182D01*
X022384Y022189D01*
X022444Y022210D01*
X022502Y022234D01*
X022559Y022262D01*
X022614Y022293D01*
X022668Y022327D01*
X022719Y022365D01*
X022767Y022406D01*
X022814Y022449D01*
X022857Y022495D01*
X022898Y022544D01*
X022935Y022595D01*
X022970Y022649D01*
X023001Y022704D01*
X023028Y022761D01*
X023053Y022819D01*
X023073Y022879D01*
X023090Y022940D01*
X023104Y023003D01*
X023113Y023065D01*
X023119Y023128D01*
X023121Y023192D01*
X023119Y023255D01*
X023113Y023318D01*
X023104Y023381D01*
X023091Y023443D01*
X023074Y023504D01*
X023053Y023564D01*
X023029Y023623D01*
X023001Y023680D01*
X022970Y023735D01*
X022935Y023788D01*
X022898Y023839D01*
X022892Y023835D01*
X022930Y023784D01*
X022964Y023731D01*
X022995Y023677D01*
X023022Y023620D01*
X023046Y023562D01*
X023067Y023502D01*
X023084Y023441D01*
X023097Y023380D01*
X023106Y023317D01*
X023112Y023255D01*
X023114Y023192D01*
X023112Y023129D01*
X023106Y023066D01*
X023097Y023004D01*
X023084Y022942D01*
X023067Y022881D01*
X023046Y022822D01*
X023022Y022764D01*
X022995Y022707D01*
X022964Y022652D01*
X022929Y022599D01*
X022892Y022548D01*
X022852Y022500D01*
X022809Y022454D01*
X022763Y022411D01*
X022714Y022371D01*
X022664Y022333D01*
X022611Y022299D01*
X022556Y022268D01*
X022499Y022240D01*
X022441Y022216D01*
X022382Y022196D01*
X022380Y022202D01*
X022439Y022223D01*
X022496Y022247D01*
X022553Y022274D01*
X022607Y022305D01*
X022660Y022339D01*
X022710Y022376D01*
X022758Y022416D01*
X022804Y022459D01*
X022847Y022505D01*
X022887Y022553D01*
X022924Y022603D01*
X022958Y022656D01*
X022988Y022710D01*
X023016Y022767D01*
X023040Y022824D01*
X023060Y022884D01*
X023077Y022944D01*
X023090Y023005D01*
X023099Y023067D01*
X023105Y023129D01*
X023107Y023192D01*
X023105Y023254D01*
X023099Y023317D01*
X023090Y023378D01*
X023077Y023440D01*
X023060Y023500D01*
X023040Y023559D01*
X023016Y023617D01*
X022989Y023673D01*
X022958Y023728D01*
X022924Y023780D01*
X022887Y023831D01*
X022881Y023826D01*
X022918Y023776D01*
X022952Y023724D01*
X022982Y023670D01*
X023010Y023614D01*
X023033Y023557D01*
X023054Y023498D01*
X023070Y023438D01*
X023083Y023377D01*
X023093Y023316D01*
X023098Y023254D01*
X023100Y023192D01*
X023098Y023130D01*
X023092Y023068D01*
X023083Y023006D01*
X023070Y022946D01*
X023053Y022886D01*
X023033Y022827D01*
X023009Y022769D01*
X022982Y022714D01*
X022952Y022659D01*
X022918Y022607D01*
X022881Y022557D01*
X022841Y022509D01*
X022799Y022464D01*
X022754Y022421D01*
X022706Y022382D01*
X022656Y022345D01*
X022604Y022311D01*
X022549Y022280D01*
X022494Y022253D01*
X022436Y022229D01*
X022377Y022209D01*
X022375Y022216D01*
X022434Y022236D01*
X022491Y022260D01*
X022546Y022287D01*
X022600Y022317D01*
X022652Y022351D01*
X022701Y022387D01*
X022749Y022427D01*
X022794Y022469D01*
X022836Y022514D01*
X022876Y022561D01*
X022912Y022611D01*
X022946Y022663D01*
X022976Y022717D01*
X023003Y022772D01*
X023027Y022829D01*
X023047Y022888D01*
X023063Y022947D01*
X023076Y023008D01*
X023086Y023069D01*
X023091Y023130D01*
X023093Y023192D01*
X023091Y023253D01*
X023086Y023315D01*
X023076Y023376D01*
X023063Y023436D01*
X023047Y023496D01*
X023027Y023554D01*
X023003Y023611D01*
X022976Y023667D01*
X022946Y023721D01*
X022912Y023772D01*
X022876Y023822D01*
X022870Y023818D01*
X022907Y023768D01*
X022940Y023717D01*
X022970Y023663D01*
X022997Y023608D01*
X023020Y023552D01*
X023040Y023494D01*
X023057Y023435D01*
X023069Y023375D01*
X023079Y023314D01*
X023084Y023253D01*
X023086Y023192D01*
X023084Y023130D01*
X023079Y023069D01*
X023069Y023009D01*
X023056Y022949D01*
X023040Y022890D01*
X023020Y022832D01*
X022997Y022775D01*
X022970Y022720D01*
X022940Y022667D01*
X022906Y022615D01*
X022870Y022566D01*
X022831Y022519D01*
X022789Y022474D01*
X022744Y022432D01*
X022697Y022393D01*
X022648Y022356D01*
X022596Y022323D01*
X022543Y022293D01*
X022488Y022266D01*
X022431Y022242D01*
X022373Y022222D01*
D21*
X025496Y011426D03*
X027646Y011426D03*
M02*
