G75*
%MOIN*%
%OFA0B0*%
%FSLAX24Y24*%
%IPPOS*%
%LPD*%
%AMOC8*
5,1,8,0,0,1.08239X$1,22.5*
%
%ADD10C,0.0000*%
D10*
X001445Y001401D02*
X031517Y001402D01*
X031522Y024643D01*
X001457Y024645D01*
X001445Y001401D01*
X001796Y002375D02*
X001798Y002425D01*
X001804Y002475D01*
X001814Y002524D01*
X001828Y002572D01*
X001845Y002619D01*
X001866Y002664D01*
X001891Y002708D01*
X001919Y002749D01*
X001951Y002788D01*
X001985Y002825D01*
X002022Y002859D01*
X002062Y002889D01*
X002104Y002916D01*
X002148Y002940D01*
X002194Y002961D01*
X002241Y002977D01*
X002289Y002990D01*
X002339Y002999D01*
X002388Y003004D01*
X002439Y003005D01*
X002489Y003002D01*
X002538Y002995D01*
X002587Y002984D01*
X002635Y002969D01*
X002681Y002951D01*
X002726Y002929D01*
X002769Y002903D01*
X002810Y002874D01*
X002849Y002842D01*
X002885Y002807D01*
X002917Y002769D01*
X002947Y002729D01*
X002974Y002686D01*
X002997Y002642D01*
X003016Y002596D01*
X003032Y002548D01*
X003044Y002499D01*
X003052Y002450D01*
X003056Y002400D01*
X003056Y002350D01*
X003052Y002300D01*
X003044Y002251D01*
X003032Y002202D01*
X003016Y002154D01*
X002997Y002108D01*
X002974Y002064D01*
X002947Y002021D01*
X002917Y001981D01*
X002885Y001943D01*
X002849Y001908D01*
X002810Y001876D01*
X002769Y001847D01*
X002726Y001821D01*
X002681Y001799D01*
X002635Y001781D01*
X002587Y001766D01*
X002538Y001755D01*
X002489Y001748D01*
X002439Y001745D01*
X002388Y001746D01*
X002339Y001751D01*
X002289Y001760D01*
X002241Y001773D01*
X002194Y001789D01*
X002148Y001810D01*
X002104Y001834D01*
X002062Y001861D01*
X002022Y001891D01*
X001985Y001925D01*
X001951Y001962D01*
X001919Y002001D01*
X001891Y002042D01*
X001866Y002086D01*
X001845Y002131D01*
X001828Y002178D01*
X001814Y002226D01*
X001804Y002275D01*
X001798Y002325D01*
X001796Y002375D01*
X001813Y023694D02*
X001815Y023744D01*
X001821Y023794D01*
X001831Y023843D01*
X001845Y023891D01*
X001862Y023938D01*
X001883Y023983D01*
X001908Y024027D01*
X001936Y024068D01*
X001968Y024107D01*
X002002Y024144D01*
X002039Y024178D01*
X002079Y024208D01*
X002121Y024235D01*
X002165Y024259D01*
X002211Y024280D01*
X002258Y024296D01*
X002306Y024309D01*
X002356Y024318D01*
X002405Y024323D01*
X002456Y024324D01*
X002506Y024321D01*
X002555Y024314D01*
X002604Y024303D01*
X002652Y024288D01*
X002698Y024270D01*
X002743Y024248D01*
X002786Y024222D01*
X002827Y024193D01*
X002866Y024161D01*
X002902Y024126D01*
X002934Y024088D01*
X002964Y024048D01*
X002991Y024005D01*
X003014Y023961D01*
X003033Y023915D01*
X003049Y023867D01*
X003061Y023818D01*
X003069Y023769D01*
X003073Y023719D01*
X003073Y023669D01*
X003069Y023619D01*
X003061Y023570D01*
X003049Y023521D01*
X003033Y023473D01*
X003014Y023427D01*
X002991Y023383D01*
X002964Y023340D01*
X002934Y023300D01*
X002902Y023262D01*
X002866Y023227D01*
X002827Y023195D01*
X002786Y023166D01*
X002743Y023140D01*
X002698Y023118D01*
X002652Y023100D01*
X002604Y023085D01*
X002555Y023074D01*
X002506Y023067D01*
X002456Y023064D01*
X002405Y023065D01*
X002356Y023070D01*
X002306Y023079D01*
X002258Y023092D01*
X002211Y023108D01*
X002165Y023129D01*
X002121Y023153D01*
X002079Y023180D01*
X002039Y023210D01*
X002002Y023244D01*
X001968Y023281D01*
X001936Y023320D01*
X001908Y023361D01*
X001883Y023405D01*
X001862Y023450D01*
X001845Y023497D01*
X001831Y023545D01*
X001821Y023594D01*
X001815Y023644D01*
X001813Y023694D01*
X029905Y023690D02*
X029907Y023740D01*
X029913Y023790D01*
X029923Y023839D01*
X029937Y023887D01*
X029954Y023934D01*
X029975Y023979D01*
X030000Y024023D01*
X030028Y024064D01*
X030060Y024103D01*
X030094Y024140D01*
X030131Y024174D01*
X030171Y024204D01*
X030213Y024231D01*
X030257Y024255D01*
X030303Y024276D01*
X030350Y024292D01*
X030398Y024305D01*
X030448Y024314D01*
X030497Y024319D01*
X030548Y024320D01*
X030598Y024317D01*
X030647Y024310D01*
X030696Y024299D01*
X030744Y024284D01*
X030790Y024266D01*
X030835Y024244D01*
X030878Y024218D01*
X030919Y024189D01*
X030958Y024157D01*
X030994Y024122D01*
X031026Y024084D01*
X031056Y024044D01*
X031083Y024001D01*
X031106Y023957D01*
X031125Y023911D01*
X031141Y023863D01*
X031153Y023814D01*
X031161Y023765D01*
X031165Y023715D01*
X031165Y023665D01*
X031161Y023615D01*
X031153Y023566D01*
X031141Y023517D01*
X031125Y023469D01*
X031106Y023423D01*
X031083Y023379D01*
X031056Y023336D01*
X031026Y023296D01*
X030994Y023258D01*
X030958Y023223D01*
X030919Y023191D01*
X030878Y023162D01*
X030835Y023136D01*
X030790Y023114D01*
X030744Y023096D01*
X030696Y023081D01*
X030647Y023070D01*
X030598Y023063D01*
X030548Y023060D01*
X030497Y023061D01*
X030448Y023066D01*
X030398Y023075D01*
X030350Y023088D01*
X030303Y023104D01*
X030257Y023125D01*
X030213Y023149D01*
X030171Y023176D01*
X030131Y023206D01*
X030094Y023240D01*
X030060Y023277D01*
X030028Y023316D01*
X030000Y023357D01*
X029975Y023401D01*
X029954Y023446D01*
X029937Y023493D01*
X029923Y023541D01*
X029913Y023590D01*
X029907Y023640D01*
X029905Y023690D01*
X029902Y002389D02*
X029904Y002439D01*
X029910Y002489D01*
X029920Y002538D01*
X029934Y002586D01*
X029951Y002633D01*
X029972Y002678D01*
X029997Y002722D01*
X030025Y002763D01*
X030057Y002802D01*
X030091Y002839D01*
X030128Y002873D01*
X030168Y002903D01*
X030210Y002930D01*
X030254Y002954D01*
X030300Y002975D01*
X030347Y002991D01*
X030395Y003004D01*
X030445Y003013D01*
X030494Y003018D01*
X030545Y003019D01*
X030595Y003016D01*
X030644Y003009D01*
X030693Y002998D01*
X030741Y002983D01*
X030787Y002965D01*
X030832Y002943D01*
X030875Y002917D01*
X030916Y002888D01*
X030955Y002856D01*
X030991Y002821D01*
X031023Y002783D01*
X031053Y002743D01*
X031080Y002700D01*
X031103Y002656D01*
X031122Y002610D01*
X031138Y002562D01*
X031150Y002513D01*
X031158Y002464D01*
X031162Y002414D01*
X031162Y002364D01*
X031158Y002314D01*
X031150Y002265D01*
X031138Y002216D01*
X031122Y002168D01*
X031103Y002122D01*
X031080Y002078D01*
X031053Y002035D01*
X031023Y001995D01*
X030991Y001957D01*
X030955Y001922D01*
X030916Y001890D01*
X030875Y001861D01*
X030832Y001835D01*
X030787Y001813D01*
X030741Y001795D01*
X030693Y001780D01*
X030644Y001769D01*
X030595Y001762D01*
X030545Y001759D01*
X030494Y001760D01*
X030445Y001765D01*
X030395Y001774D01*
X030347Y001787D01*
X030300Y001803D01*
X030254Y001824D01*
X030210Y001848D01*
X030168Y001875D01*
X030128Y001905D01*
X030091Y001939D01*
X030057Y001976D01*
X030025Y002015D01*
X029997Y002056D01*
X029972Y002100D01*
X029951Y002145D01*
X029934Y002192D01*
X029920Y002240D01*
X029910Y002289D01*
X029904Y002339D01*
X029902Y002389D01*
M02*
