%
M48
M72
T01C0.0236
T02C0.0240
T03C0.0276
T04C0.0280
T05C0.0315
T06C0.0320
T07C0.0354
T08C0.0400
T09C0.0590
T10C0.0787
T11C0.1260
%
T01
X22974Y17964
X27594Y18084
X28514Y17694
X23394Y11754
X12564Y11794
X26874Y15484
X22244Y8974
X9164Y17394
X18184Y12164
X8144Y15824
X9424Y17894
X27534Y19884
X10214Y20594
X18004Y14924
X16454Y13374
X12214Y13544
X23394Y13534
X17444Y13274
X15334Y10194
X27304Y10514
X9644Y21354
X19664Y20574
X29564Y10574
X22984Y10134
X24814Y20134
X12654Y5014
X11744Y4634
X18514Y13644
X21234Y10974
T02
X14354Y14490
X16354Y14490
T03
X5247Y7431
X4735Y7746
X5247Y8061
X4735Y8376
X5247Y8691
T04
X26827Y14422
X27527Y14422
X18136Y5313
X17436Y5313
X16289Y5266
X15589Y5266
X20003Y5357
X19303Y5357
X14451Y5301
X13751Y5301
T05
X10849Y23053
X12424Y23053
T06
X9124Y16074
X10124Y16074
X11124Y16074
X12124Y16074
X13124Y16074
X14124Y16074
X15124Y16074
X16124Y16074
X17124Y16074
X18124Y16074
X19124Y16074
X20124Y16074
X21124Y16074
X22124Y16074
X22124Y19074
X21124Y19074
X20124Y19074
X19124Y19074
X18124Y19074
X17124Y19074
X16124Y19074
X15124Y19074
X14124Y19074
X13124Y19074
X12124Y19074
X11124Y19074
X10124Y19074
X9124Y19074
X7444Y16229
X7444Y19229
X23932Y14265
X24432Y15015
X24932Y14265
X25769Y12746
X26769Y12746
X17136Y20284
X18136Y20284
X16104Y20284
X15104Y20284
X15963Y12850
X16963Y12850
X13666Y12849
X14666Y12849
X24774Y12745
X23774Y12745
X6202Y19222
X6202Y16222
X28937Y19124
X28937Y16124
X27166Y23287
X28166Y23287
X29166Y23287
X27653Y19151
X27653Y16151
X21570Y23192
X22070Y22442
X22570Y23192
X28945Y2270
X27945Y2270
X26734Y2270
X25734Y2270
X24525Y2255
X23525Y2255
X22408Y2286
X21408Y2286
X20238Y2270
X19238Y2270
X28071Y11426
X25071Y11426
X3769Y23275
X4769Y23275
X5769Y23275
X26457Y19124
X26457Y16124
X5009Y16229
X5009Y19229
X5073Y11947
X5073Y14947
X6568Y11952
X6568Y14952
T07
X24208Y19107
X24208Y18107
X24208Y17107
X24208Y16107
X25208Y19107
X25208Y18107
X25208Y17107
X25208Y16107
X16515Y9515
X17515Y9515
X18515Y9515
X19515Y9515
X20515Y9515
X21515Y9515
X30728Y5275
T08
X30539Y20014
X30539Y19014
X30539Y18014
X30539Y17014
X30539Y16014
X30539Y15014
X2617Y5289
X2617Y4189
X7014Y9532
X8014Y9532
X9014Y9532
X10014Y9532
X11014Y9532
X12014Y9532
X13014Y9532
X14014Y9532
X25914Y3680
X24914Y3680
X23914Y3680
X22914Y3680
X21914Y3680
X20914Y3680
X19914Y3680
X18914Y3680
X17914Y3680
X16914Y3680
X15914Y3680
X14914Y3680
X13914Y3680
X12914Y3680
X11914Y3680
X10914Y3680
X9914Y3680
X8914Y3680
X7914Y3680
X6914Y3680
X23958Y22678
X24958Y22678
X25958Y22678
X6959Y22678
X7959Y22678
X8959Y22678
X28651Y12594
X28651Y13594
X2348Y13144
X2348Y11364
X2364Y17034
X2364Y15254
X2364Y21534
X2364Y19754
T09
X3328Y13634
X3328Y10874
X3344Y17524
X3344Y14764
X3344Y22024
X3344Y19264
T10
X3220Y9498
X3220Y6624
T11
X2443Y23694
X30535Y23690
X30532Y2389
X2426Y2375
M30
